<svg width="28" height="28" viewBox="0 0 28 28" fill="none" xmlns="http://www.w3.org/2000/svg">
<path d="M19.833 24.5H8.16634C3.49967 24.5 2.33301 23.3333 2.33301 18.6667V9.33333C2.33301 4.66667 3.49967 3.5 8.16634 3.5H19.833C24.4997 3.5 25.6663 4.66667 25.6663 9.33333V18.6667C25.6663 23.3333 24.4997 24.5 19.833 24.5Z" stroke="#292D32" stroke-width="1.75" stroke-linecap="round" stroke-linejoin="round"/>
<path d="M16.333 9.3335H22.1663" stroke="#292D32" stroke-width="1.75" stroke-linecap="round" stroke-linejoin="round"/>
<path d="M17.4995 14H22.1662" stroke="#292D32" stroke-width="1.75" stroke-linecap="round" stroke-linejoin="round"/>
<path d="M19.833 18.6665H22.1663" stroke="#292D32" stroke-width="1.75" stroke-linecap="round" stroke-linejoin="round"/>
<path d="M9.91684 13.1716C11.0831 13.1716 12.0285 12.2261 12.0285 11.0599C12.0285 9.89367 11.0831 8.94824 9.91684 8.94824C8.7506 8.94824 7.80518 9.89367 7.80518 11.0599C7.80518 12.2261 8.7506 13.1716 9.91684 13.1716Z" stroke="#292D32" stroke-width="1.75" stroke-linecap="round" stroke-linejoin="round"/>
<path d="M13.9997 19.0516C13.8363 17.3599 12.4947 16.0299 10.803 15.8782C10.2197 15.8199 9.62467 15.8199 9.02967 15.8782C7.33801 16.0416 5.99634 17.3599 5.83301 19.0516" stroke="#292D32" stroke-width="1.75" stroke-linecap="round" stroke-linejoin="round"/>
</svg>
