<svg width="28" height="28" viewBox="0 0 28 28" fill="none" xmlns="http://www.w3.org/2000/svg">
<path d="M24.3462 6.03383L25.1624 5.29911C25.3789 5.10147 25.5005 4.83341 25.5005 4.5539C25.5005 4.27438 25.3789 4.00632 25.1624 3.80868C24.9459 3.61104 24.6524 3.5 24.3462 3.5C24.0401 3.5 23.7465 3.61104 23.53 3.80868L21.9206 5.28862L18.6674 8.25899L11.4136 14.8715C10.225 14.1555 8.78766 13.8678 7.38002 14.0642C5.97238 14.2606 4.6947 14.9271 3.79455 15.9346C2.89441 16.942 2.43589 18.2187 2.50784 19.5172C2.57978 20.8157 3.17708 22.0435 4.18399 22.9629C5.1909 23.8822 6.53573 24.4276 7.95789 24.4933C9.38005 24.559 10.7783 24.1403 11.8817 23.3185C12.9851 22.4966 13.715 21.33 13.9302 20.0448C14.1453 18.7595 13.8302 17.4471 13.046 16.3619L19.4721 10.4841L21.9091 12.7198C22.0163 12.817 22.1434 12.8939 22.2832 12.9462C22.4229 12.9986 22.5726 13.0252 22.7237 13.0248C22.8747 13.0243 23.0242 12.9966 23.1635 12.9434C23.3029 12.8902 23.4294 12.8124 23.5358 12.7145C23.6422 12.6167 23.7265 12.5006 23.7838 12.373C23.8411 12.2454 23.8703 12.1088 23.8698 11.9709C23.8693 11.8329 23.839 11.6965 23.7807 11.5693C23.7224 11.442 23.6372 11.3265 23.53 11.2294L21.093 9.0042L22.7253 7.52427L23.53 8.25899C23.6365 8.35685 23.763 8.43461 23.9023 8.48784C24.0417 8.54107 24.1911 8.56872 24.3422 8.5692C24.4932 8.56969 24.6429 8.54301 24.7826 8.49068C24.9224 8.43836 25.0495 8.36141 25.1567 8.26423C25.2638 8.16706 25.349 8.05156 25.4073 7.92433C25.4656 7.79711 25.4959 7.66064 25.4964 7.52273C25.497 7.38482 25.4677 7.24816 25.4104 7.12056C25.3531 6.99296 25.2688 6.87691 25.1624 6.77905L24.3462 6.03383ZM8.25234 22.3971C7.57026 22.3971 6.90349 22.2124 6.33635 21.8664C5.76922 21.5204 5.32719 21.0287 5.06617 20.4533C4.80515 19.8779 4.73685 19.2448 4.86992 18.634C5.00299 18.0232 5.33144 17.4621 5.81375 17.0218C6.29606 16.5814 6.91056 16.2815 7.57954 16.16C8.24852 16.0385 8.94193 16.1009 9.5721 16.3392C10.2023 16.5775 10.7409 16.9811 11.1198 17.4989C11.4988 18.0167 11.701 18.6255 11.701 19.2483C11.701 20.0834 11.3377 20.8843 10.6909 21.4748C10.0442 22.0654 9.16699 22.3971 8.25234 22.3971Z" fill="#186F65"/>
</svg>
