<svg width="29" height="29" viewBox="0 0 29 29" fill="none" xmlns="http://www.w3.org/2000/svg">
<path d="M21.9194 26.1242C20.8561 26.4383 19.5994 26.5833 18.1252 26.5833H10.8752C9.40105 26.5833 8.14439 26.4383 7.08105 26.1242C7.34689 22.9825 10.5731 20.5054 14.5002 20.5054C18.4273 20.5054 21.6536 22.9825 21.9194 26.1242Z" stroke="#292D32" stroke-width="1.5" stroke-linecap="round" stroke-linejoin="round"/>
<path d="M18.1248 2.4165H10.8748C4.83317 2.4165 2.4165 4.83317 2.4165 10.8748V18.1248C2.4165 22.6923 3.794 25.1936 7.08067 26.124C7.3465 22.9823 10.5728 20.5052 14.4998 20.5052C18.4269 20.5052 21.6532 22.9823 21.919 26.124C25.2057 25.1936 26.5832 22.6923 26.5832 18.1248V10.8748C26.5832 4.83317 24.1665 2.4165 18.1248 2.4165ZM14.4998 17.1219C12.1073 17.1219 10.174 15.1765 10.174 12.784C10.174 10.3915 11.7817 8.6739 14.1742 8.6739C16.3321 8.60042 18.2467 10.534 18.5 12.9998C18.5 15.3923 16.8923 17.1219 14.4998 17.1219Z" stroke="#292D32" stroke-width="1.5" stroke-linecap="round" stroke-linejoin="round"/>
<path d="M20 6V8" stroke="#292D32" stroke-linecap="round"/>
<path d="M20 10V10.0001" stroke="#292D32" stroke-linecap="round"/>
<circle cx="20" cy="8" r="3.625" stroke="#292D32" stroke-width="1.25"/>
</svg>
