<svg width="382" height="307" viewBox="0 0 382 307" fill="none" xmlns="http://www.w3.org/2000/svg">
<rect x="7.90596" y="0.905963" width="373.188" height="293.188" rx="5.09404" fill="white" stroke="#ECEEF7" stroke-width="1.81193"/>
<path d="M38.7289 37.5329V40.4149H43.3766V43.0939H38.7289V46.2195H43.9855V49H35.2583V34.7524H43.9855V37.5329H38.7289ZM60.8922 37.5532C62.2994 37.5532 63.4157 37.9794 64.241 38.8318C65.0799 39.6842 65.4994 40.8682 65.4994 42.3836V49H62.0491V42.8504C62.0491 42.1197 61.8529 41.5582 61.4605 41.1658C61.0816 40.7599 60.554 40.557 59.8774 40.557C59.2009 40.557 58.6665 40.7599 58.2741 41.1658C57.8952 41.5582 57.7058 42.1197 57.7058 42.8504V49H54.2555V42.8504C54.2555 42.1197 54.0593 41.5582 53.6669 41.1658C53.2881 40.7599 52.7604 40.557 52.0839 40.557C51.4073 40.557 50.8729 40.7599 50.4805 41.1658C50.1016 41.5582 49.9122 42.1197 49.9122 42.8504V49H46.4416V37.675H49.9122V39.0957C50.264 38.6221 50.724 38.25 51.2923 37.9794C51.8606 37.6953 52.5033 37.5532 53.2204 37.5532C54.0728 37.5532 54.8305 37.7358 55.4935 38.1012C56.1701 38.4665 56.6978 38.9874 57.0766 39.6639C57.469 39.0415 58.0035 38.5341 58.68 38.1418C59.3565 37.7494 60.0939 37.5532 60.8922 37.5532ZM71.6001 39.2783C71.9384 38.7506 72.4052 38.3244 73.0006 37.9997C73.5959 37.675 74.2927 37.5126 75.091 37.5126C76.0246 37.5126 76.8703 37.7494 77.628 38.2229C78.3857 38.6965 78.981 39.373 79.414 40.2525C79.8605 41.132 80.0838 42.1536 80.0838 43.3172C80.0838 44.4808 79.8605 45.5091 79.414 46.4021C78.981 47.2816 78.3857 47.9649 77.628 48.452C76.8703 48.9256 76.0246 49.1624 75.091 49.1624C74.3063 49.1624 73.6094 49 73.0006 48.6753C72.4052 48.3505 71.9384 47.9311 71.6001 47.4169V54.3987H68.1296V37.675H71.6001V39.2783ZM76.5523 43.3172C76.5523 42.4512 76.3088 41.7747 75.8217 41.2876C75.3481 40.787 74.7595 40.5367 74.0559 40.5367C73.3659 40.5367 72.7773 40.787 72.2902 41.2876C71.8166 41.7882 71.5799 42.4715 71.5799 43.3375C71.5799 44.2034 71.8166 44.8867 72.2902 45.3874C72.7773 45.888 73.3659 46.1383 74.0559 46.1383C74.746 46.1383 75.3346 45.888 75.8217 45.3874C76.3088 44.8732 76.5523 44.1831 76.5523 43.3172ZM85.5781 33.9811V49H82.1075V33.9811H85.5781ZM93.4512 49.1624C92.3417 49.1624 91.3405 48.9256 90.4475 48.452C89.568 47.9784 88.8712 47.3019 88.357 46.4224C87.8564 45.543 87.6061 44.5146 87.6061 43.3375C87.6061 42.1739 87.8631 41.1523 88.3773 40.2728C88.8915 39.3798 89.595 38.6965 90.4881 38.2229C91.3811 37.7494 92.3823 37.5126 93.4918 37.5126C94.6013 37.5126 95.6026 37.7494 96.4956 38.2229C97.3886 38.6965 98.0922 39.3798 98.6064 40.2728C99.1205 41.1523 99.3776 42.1739 99.3776 43.3375C99.3776 44.5011 99.1138 45.5294 98.5861 46.4224C98.0719 47.3019 97.3616 47.9784 96.455 48.452C95.562 48.9256 94.5607 49.1624 93.4512 49.1624ZM93.4512 46.1586C94.1142 46.1586 94.6758 45.915 95.1358 45.4279C95.6094 44.9408 95.8461 44.244 95.8461 43.3375C95.8461 42.4309 95.6161 41.7341 95.1561 41.247C94.7096 40.7599 94.1548 40.5164 93.4918 40.5164C92.8153 40.5164 92.2538 40.7599 91.8073 41.247C91.3608 41.7206 91.1375 42.4174 91.1375 43.3375C91.1375 44.244 91.354 44.9408 91.787 45.4279C92.2335 45.915 92.7882 46.1586 93.4512 46.1586ZM112.99 37.675L105.887 54.3784H102.152L104.75 48.6144L100.143 37.675H104.02L106.638 44.7582L109.236 37.675H112.99ZM125.124 43.1548C125.124 43.4795 125.104 43.8178 125.063 44.1696H117.209C117.263 44.8732 117.486 45.4144 117.878 45.7933C118.284 46.1586 118.778 46.3413 119.36 46.3413C120.226 46.3413 120.828 45.9759 121.166 45.2453H124.86C124.671 45.9895 124.326 46.6592 123.825 47.2546C123.338 47.8499 122.722 48.3167 121.978 48.655C121.234 48.9932 120.402 49.1624 119.482 49.1624C118.372 49.1624 117.384 48.9256 116.519 48.452C115.653 47.9784 114.976 47.3019 114.489 46.4224C114.002 45.543 113.758 44.5146 113.758 43.3375C113.758 42.1603 113.995 41.132 114.469 40.2525C114.956 39.373 115.632 38.6965 116.498 38.2229C117.364 37.7494 118.359 37.5126 119.482 37.5126C120.578 37.5126 121.552 37.7426 122.404 38.2026C123.257 38.6627 123.92 39.3189 124.393 40.1713C124.88 41.0238 125.124 42.0183 125.124 43.1548ZM121.572 42.2415C121.572 41.6462 121.369 41.1726 120.963 40.8208C120.557 40.469 120.05 40.2931 119.441 40.2931C118.859 40.2931 118.365 40.4622 117.96 40.8005C117.567 41.1388 117.324 41.6191 117.229 42.2415H121.572ZM137.833 43.1548C137.833 43.4795 137.813 43.8178 137.772 44.1696H129.918C129.972 44.8732 130.195 45.4144 130.588 45.7933C130.994 46.1586 131.488 46.3413 132.069 46.3413C132.935 46.3413 133.537 45.9759 133.876 45.2453H137.57C137.38 45.9895 137.035 46.6592 136.534 47.2546C136.047 47.8499 135.432 48.3167 134.688 48.655C133.943 48.9932 133.111 49.1624 132.191 49.1624C131.082 49.1624 130.094 48.9256 129.228 48.452C128.362 47.9784 127.685 47.3019 127.198 46.4224C126.711 45.543 126.468 44.5146 126.468 43.3375C126.468 42.1603 126.704 41.132 127.178 40.2525C127.665 39.373 128.342 38.6965 129.208 38.2229C130.074 37.7494 131.068 37.5126 132.191 37.5126C133.287 37.5126 134.261 37.7426 135.114 38.2026C135.966 38.6627 136.629 39.3189 137.103 40.1713C137.59 41.0238 137.833 42.0183 137.833 43.1548ZM134.282 42.2415C134.282 41.6462 134.079 41.1726 133.673 40.8208C133.267 40.469 132.759 40.2931 132.151 40.2931C131.569 40.2931 131.075 40.4622 130.669 40.8005C130.277 41.1388 130.033 41.6191 129.938 42.2415H134.282ZM143.783 41.8559C143.783 40.4487 144.087 39.1971 144.696 38.1012C145.305 36.9917 146.15 36.1325 147.233 35.5236C148.329 34.9012 149.567 34.59 150.947 34.59C152.638 34.59 154.086 35.0365 155.29 35.9295C156.494 36.8225 157.3 38.0403 157.705 39.5828H153.89C153.606 38.9874 153.2 38.5341 152.672 38.2229C152.158 37.9117 151.569 37.7561 150.906 37.7561C149.837 37.7561 148.971 38.1282 148.309 38.8724C147.646 39.6166 147.314 40.6111 147.314 41.8559C147.314 43.1007 147.646 44.0952 148.309 44.8394C148.971 45.5835 149.837 45.9556 150.906 45.9556C151.569 45.9556 152.158 45.8 152.672 45.4888C153.2 45.1776 153.606 44.7244 153.89 44.129H157.705C157.3 45.6715 156.494 46.8892 155.29 47.7823C154.086 48.6617 152.638 49.1015 150.947 49.1015C149.567 49.1015 148.329 48.797 147.233 48.1882C146.15 47.5658 145.305 46.7066 144.696 45.6106C144.087 44.5146 143.783 43.2631 143.783 41.8559ZM165.189 49.1624C164.079 49.1624 163.078 48.9256 162.185 48.452C161.306 47.9784 160.609 47.3019 160.095 46.4224C159.594 45.543 159.344 44.5146 159.344 43.3375C159.344 42.1739 159.601 41.1523 160.115 40.2728C160.629 39.3798 161.333 38.6965 162.226 38.2229C163.119 37.7494 164.12 37.5126 165.229 37.5126C166.339 37.5126 167.34 37.7494 168.233 38.2229C169.126 38.6965 169.83 39.3798 170.344 40.2728C170.858 41.1523 171.115 42.1739 171.115 43.3375C171.115 44.5011 170.851 45.5294 170.324 46.4224C169.81 47.3019 169.099 47.9784 168.193 48.452C167.3 48.9256 166.298 49.1624 165.189 49.1624ZM165.189 46.1586C165.852 46.1586 166.413 45.915 166.873 45.4279C167.347 44.9408 167.584 44.244 167.584 43.3375C167.584 42.4309 167.354 41.7341 166.894 41.247C166.447 40.7599 165.892 40.5164 165.229 40.5164C164.553 40.5164 163.991 40.7599 163.545 41.247C163.098 41.7206 162.875 42.4174 162.875 43.3375C162.875 44.244 163.092 44.9408 163.525 45.4279C163.971 45.915 164.526 46.1586 165.189 46.1586ZM187.61 37.5532C189.017 37.5532 190.133 37.9794 190.959 38.8318C191.798 39.6842 192.217 40.8682 192.217 42.3836V49H188.767V42.8504C188.767 42.1197 188.571 41.5582 188.178 41.1658C187.799 40.7599 187.272 40.557 186.595 40.557C185.919 40.557 185.384 40.7599 184.992 41.1658C184.613 41.5582 184.424 42.1197 184.424 42.8504V49H180.973V42.8504C180.973 42.1197 180.777 41.5582 180.385 41.1658C180.006 40.7599 179.478 40.557 178.802 40.557C178.125 40.557 177.591 40.7599 177.198 41.1658C176.819 41.5582 176.63 42.1197 176.63 42.8504V49H173.159V37.675H176.63V39.0957C176.982 38.6221 177.442 38.25 178.01 37.9794C178.578 37.6953 179.221 37.5532 179.938 37.5532C180.791 37.5532 181.548 37.7358 182.211 38.1012C182.888 38.4665 183.416 38.9874 183.794 39.6639C184.187 39.0415 184.721 38.5341 185.398 38.1418C186.074 37.7494 186.812 37.5532 187.61 37.5532ZM198.318 39.2783C198.656 38.7506 199.123 38.3244 199.718 37.9997C200.314 37.675 201.011 37.5126 201.809 37.5126C202.742 37.5126 203.588 37.7494 204.346 38.2229C205.103 38.6965 205.699 39.373 206.132 40.2525C206.578 41.132 206.802 42.1536 206.802 43.3172C206.802 44.4808 206.578 45.5091 206.132 46.4021C205.699 47.2816 205.103 47.9649 204.346 48.452C203.588 48.9256 202.742 49.1624 201.809 49.1624C201.024 49.1624 200.327 49 199.718 48.6753C199.123 48.3505 198.656 47.9311 198.318 47.4169V54.3987H194.847V37.675H198.318V39.2783ZM203.27 43.3172C203.27 42.4512 203.027 41.7747 202.539 41.2876C202.066 40.787 201.477 40.5367 200.774 40.5367C200.084 40.5367 199.495 40.787 199.008 41.2876C198.534 41.7882 198.298 42.4715 198.298 43.3375C198.298 44.2034 198.534 44.8867 199.008 45.3874C199.495 45.888 200.084 46.1383 200.774 46.1383C201.464 46.1383 202.052 45.888 202.539 45.3874C203.027 44.8732 203.27 44.1831 203.27 43.3172ZM213.98 49.1624C212.871 49.1624 211.87 48.9256 210.977 48.452C210.097 47.9784 209.4 47.3019 208.886 46.4224C208.386 45.543 208.135 44.5146 208.135 43.3375C208.135 42.1739 208.392 41.1523 208.906 40.2728C209.421 39.3798 210.124 38.6965 211.017 38.2229C211.91 37.7494 212.911 37.5126 214.021 37.5126C215.13 37.5126 216.132 37.7494 217.025 38.2229C217.918 38.6965 218.621 39.3798 219.136 40.2728C219.65 41.1523 219.907 42.1739 219.907 43.3375C219.907 44.5011 219.643 45.5294 219.115 46.4224C218.601 47.3019 217.891 47.9784 216.984 48.452C216.091 48.9256 215.09 49.1624 213.98 49.1624ZM213.98 46.1586C214.643 46.1586 215.205 45.915 215.665 45.4279C216.139 44.9408 216.375 44.244 216.375 43.3375C216.375 42.4309 216.145 41.7341 215.685 41.247C215.239 40.7599 214.684 40.5164 214.021 40.5164C213.344 40.5164 212.783 40.7599 212.336 41.247C211.89 41.7206 211.667 42.4174 211.667 43.3375C211.667 44.244 211.883 44.9408 212.316 45.4279C212.763 45.915 213.317 46.1586 213.98 46.1586ZM226.558 49.1624C225.57 49.1624 224.691 48.9932 223.92 48.655C223.148 48.3167 222.54 47.8567 222.093 47.2749C221.646 46.6795 221.396 46.0165 221.342 45.2859H224.772C224.813 45.6783 224.995 45.9962 225.32 46.2398C225.645 46.4833 226.044 46.6051 226.517 46.6051C226.95 46.6051 227.282 46.5239 227.512 46.3615C227.756 46.1857 227.877 45.9624 227.877 45.6918C227.877 45.3671 227.708 45.1303 227.37 44.9814C227.032 44.8191 226.484 44.6432 225.726 44.4537C224.914 44.2643 224.238 44.0681 223.696 43.8652C223.155 43.6487 222.688 43.3172 222.296 42.8707C221.904 42.4106 221.707 41.795 221.707 41.0238C221.707 40.3743 221.883 39.7857 222.235 39.258C222.6 38.7168 223.128 38.2906 223.818 37.9794C224.522 37.6682 225.354 37.5126 226.315 37.5126C227.735 37.5126 228.851 37.8644 229.663 38.568C230.489 39.2716 230.962 40.2052 231.084 41.3688H227.877C227.823 40.9764 227.647 40.6652 227.35 40.4352C227.065 40.2052 226.687 40.0902 226.213 40.0902C225.807 40.0902 225.496 40.1713 225.279 40.3337C225.063 40.4825 224.955 40.6923 224.955 40.9629C224.955 41.2876 225.124 41.5312 225.462 41.6935C225.814 41.8559 226.355 42.0183 227.086 42.1806C227.925 42.3971 228.608 42.6136 229.136 42.8301C229.663 43.033 230.123 43.3713 230.516 43.8449C230.922 44.3049 231.131 44.9273 231.145 45.7121C231.145 46.3751 230.955 46.9704 230.577 47.4981C230.211 48.0123 229.677 48.4182 228.973 48.7159C228.283 49.0135 227.478 49.1624 226.558 49.1624ZM235.217 36.4978C234.608 36.4978 234.107 36.3219 233.715 35.9701C233.336 35.6048 233.146 35.1583 233.146 34.6306C233.146 34.0894 233.336 33.6429 233.715 33.2911C234.107 32.9257 234.608 32.7431 235.217 32.7431C235.812 32.7431 236.299 32.9257 236.678 33.2911C237.07 33.6429 237.266 34.0894 237.266 34.6306C237.266 35.1583 237.07 35.6048 236.678 35.9701C236.299 36.3219 235.812 36.4978 235.217 36.4978ZM236.942 37.675V49H233.471V37.675H236.942ZM245.972 46.0571V49H244.206C242.948 49 241.967 48.6956 241.263 48.0867C240.56 47.4643 240.208 46.4563 240.208 45.0626V40.557H238.828V37.675H240.208V34.9147H243.678V37.675H245.951V40.557H243.678V45.1032C243.678 45.4415 243.76 45.685 243.922 45.8339C244.084 45.9827 244.355 46.0571 244.734 46.0571H245.972ZM249.853 36.4978C249.244 36.4978 248.744 36.3219 248.351 35.9701C247.973 35.6048 247.783 35.1583 247.783 34.6306C247.783 34.0894 247.973 33.6429 248.351 33.2911C248.744 32.9257 249.244 32.7431 249.853 32.7431C250.449 32.7431 250.936 32.9257 251.315 33.2911C251.707 33.6429 251.903 34.0894 251.903 34.6306C251.903 35.1583 251.707 35.6048 251.315 35.9701C250.936 36.3219 250.449 36.4978 249.853 36.4978ZM251.578 37.675V49H248.108V37.675H251.578ZM259.452 49.1624C258.342 49.1624 257.341 48.9256 256.448 48.452C255.568 47.9784 254.872 47.3019 254.357 46.4224C253.857 45.543 253.606 44.5146 253.606 43.3375C253.606 42.1739 253.864 41.1523 254.378 40.2728C254.892 39.3798 255.595 38.6965 256.488 38.2229C257.381 37.7494 258.383 37.5126 259.492 37.5126C260.602 37.5126 261.603 37.7494 262.496 38.2229C263.389 38.6965 264.093 39.3798 264.607 40.2728C265.121 41.1523 265.378 42.1739 265.378 43.3375C265.378 44.5011 265.114 45.5294 264.586 46.4224C264.072 47.3019 263.362 47.9784 262.455 48.452C261.562 48.9256 260.561 49.1624 259.452 49.1624ZM259.452 46.1586C260.115 46.1586 260.676 45.915 261.136 45.4279C261.61 44.9408 261.847 44.244 261.847 43.3375C261.847 42.4309 261.617 41.7341 261.157 41.247C260.71 40.7599 260.155 40.5164 259.492 40.5164C258.816 40.5164 258.254 40.7599 257.808 41.247C257.361 41.7206 257.138 42.4174 257.138 43.3375C257.138 44.244 257.354 44.9408 257.787 45.4279C258.234 45.915 258.789 46.1586 259.452 46.1586ZM274.323 37.5532C275.649 37.5532 276.704 37.9862 277.489 38.8521C278.287 39.7045 278.686 40.8817 278.686 42.3836V49H275.236V42.8504C275.236 42.0927 275.04 41.5041 274.647 41.0846C274.255 40.6652 273.727 40.4555 273.064 40.4555C272.401 40.4555 271.874 40.6652 271.481 41.0846C271.089 41.5041 270.893 42.0927 270.893 42.8504V49H267.422V37.675H270.893V39.1768C271.245 38.6762 271.718 38.2838 272.313 37.9997C272.909 37.702 273.579 37.5532 274.323 37.5532Z" fill="black"/>
<path d="M129.64 267.728C128.637 267.195 128.136 266.357 128.136 265.216C128.136 264.64 128.285 264.117 128.584 263.648C128.883 263.168 129.336 262.789 129.944 262.512C130.552 262.224 131.299 262.08 132.184 262.08C133.069 262.08 133.811 262.224 134.408 262.512C135.016 262.789 135.469 263.168 135.768 263.648C136.067 264.117 136.216 264.64 136.216 265.216C136.216 265.792 136.077 266.293 135.8 266.72C135.533 267.147 135.171 267.483 134.712 267.728C135.288 268.005 135.731 268.389 136.04 268.88C136.349 269.36 136.504 269.925 136.504 270.576C136.504 271.333 136.312 271.989 135.928 272.544C135.544 273.088 135.021 273.504 134.36 273.792C133.709 274.08 132.984 274.224 132.184 274.224C131.384 274.224 130.653 274.08 129.992 273.792C129.341 273.504 128.824 273.088 128.44 272.544C128.056 271.989 127.864 271.333 127.864 270.576C127.864 269.915 128.019 269.344 128.328 268.864C128.637 268.373 129.075 267.995 129.64 267.728ZM133.56 265.632C133.56 265.195 133.432 264.859 133.176 264.624C132.931 264.379 132.6 264.256 132.184 264.256C131.768 264.256 131.432 264.379 131.176 264.624C130.931 264.869 130.808 265.211 130.808 265.648C130.808 266.064 130.936 266.395 131.192 266.64C131.448 266.875 131.779 266.992 132.184 266.992C132.589 266.992 132.92 266.869 133.176 266.624C133.432 266.379 133.56 266.048 133.56 265.632ZM132.184 268.912C131.683 268.912 131.277 269.051 130.968 269.328C130.659 269.595 130.504 269.968 130.504 270.448C130.504 270.896 130.653 271.264 130.952 271.552C131.261 271.84 131.672 271.984 132.184 271.984C132.696 271.984 133.096 271.84 133.384 271.552C133.683 271.264 133.832 270.896 133.832 270.448C133.832 269.979 133.677 269.605 133.368 269.328C133.069 269.051 132.675 268.912 132.184 268.912ZM146.479 264.704H141.487V266.912C141.7 266.677 141.999 266.485 142.383 266.336C142.767 266.187 143.183 266.112 143.631 266.112C144.431 266.112 145.092 266.293 145.615 266.656C146.148 267.019 146.538 267.488 146.783 268.064C147.028 268.64 147.151 269.264 147.151 269.936C147.151 271.184 146.799 272.176 146.095 272.912C145.391 273.637 144.399 274 143.119 274C142.266 274 141.524 273.856 140.895 273.568C140.266 273.269 139.78 272.859 139.439 272.336C139.098 271.813 138.911 271.211 138.879 270.528H141.551C141.615 270.859 141.77 271.136 142.015 271.36C142.26 271.573 142.596 271.68 143.023 271.68C143.524 271.68 143.898 271.52 144.143 271.2C144.388 270.88 144.511 270.453 144.511 269.92C144.511 269.397 144.383 268.997 144.127 268.72C143.871 268.443 143.498 268.304 143.007 268.304C142.644 268.304 142.346 268.395 142.111 268.576C141.876 268.747 141.722 268.976 141.647 269.264H139.007V262.304H146.479V264.704ZM154.597 265.472C154.512 265.077 154.363 264.784 154.149 264.592C153.936 264.389 153.632 264.288 153.237 264.288C152.629 264.288 152.192 264.555 151.925 265.088C151.659 265.611 151.52 266.443 151.509 267.584C151.744 267.211 152.08 266.917 152.517 266.704C152.965 266.491 153.456 266.384 153.989 266.384C155.035 266.384 155.872 266.715 156.501 267.376C157.141 268.037 157.461 268.96 157.461 270.144C157.461 270.923 157.301 271.605 156.981 272.192C156.672 272.779 156.213 273.237 155.605 273.568C155.008 273.899 154.299 274.064 153.477 274.064C151.835 274.064 150.693 273.552 150.053 272.528C149.413 271.493 149.093 270.011 149.093 268.08C149.093 266.053 149.429 264.549 150.101 263.568C150.784 262.576 151.872 262.08 153.365 262.08C154.165 262.08 154.837 262.24 155.381 262.56C155.936 262.869 156.352 263.28 156.629 263.792C156.917 264.304 157.088 264.864 157.141 265.472H154.597ZM153.333 268.544C152.875 268.544 152.491 268.683 152.181 268.96C151.883 269.227 151.733 269.611 151.733 270.112C151.733 270.624 151.872 271.024 152.149 271.312C152.437 271.6 152.843 271.744 153.365 271.744C153.835 271.744 154.203 271.605 154.469 271.328C154.747 271.04 154.885 270.651 154.885 270.16C154.885 269.659 154.752 269.264 154.485 268.976C154.219 268.688 153.835 268.544 153.333 268.544ZM171.407 269.392C171.407 269.648 171.391 269.915 171.359 270.192H165.167C165.21 270.747 165.386 271.173 165.695 271.472C166.015 271.76 166.405 271.904 166.863 271.904C167.546 271.904 168.021 271.616 168.287 271.04H171.199C171.05 271.627 170.778 272.155 170.383 272.624C169.999 273.093 169.514 273.461 168.927 273.728C168.341 273.995 167.685 274.128 166.959 274.128C166.085 274.128 165.306 273.941 164.623 273.568C163.941 273.195 163.407 272.661 163.023 271.968C162.639 271.275 162.447 270.464 162.447 269.536C162.447 268.608 162.634 267.797 163.007 267.104C163.391 266.411 163.925 265.877 164.607 265.504C165.29 265.131 166.074 264.944 166.959 264.944C167.823 264.944 168.591 265.125 169.263 265.488C169.935 265.851 170.458 266.368 170.831 267.04C171.215 267.712 171.407 268.496 171.407 269.392ZM168.607 268.672C168.607 268.203 168.447 267.829 168.127 267.552C167.807 267.275 167.407 267.136 166.927 267.136C166.469 267.136 166.079 267.269 165.759 267.536C165.45 267.803 165.258 268.181 165.183 268.672H168.607ZM184.403 264.976C185.512 264.976 186.392 265.312 187.043 265.984C187.704 266.656 188.035 267.589 188.035 268.784V274H185.315V269.152C185.315 268.576 185.16 268.133 184.851 267.824C184.552 267.504 184.136 267.344 183.603 267.344C183.069 267.344 182.648 267.504 182.339 267.824C182.04 268.133 181.891 268.576 181.891 269.152V274H179.171V269.152C179.171 268.576 179.016 268.133 178.707 267.824C178.408 267.504 177.992 267.344 177.459 267.344C176.925 267.344 176.504 267.504 176.195 267.824C175.896 268.133 175.747 268.576 175.747 269.152V274H173.011V265.072H175.747V266.192C176.024 265.819 176.387 265.525 176.835 265.312C177.283 265.088 177.789 264.976 178.355 264.976C179.027 264.976 179.624 265.12 180.147 265.408C180.68 265.696 181.096 266.107 181.395 266.64C181.704 266.149 182.125 265.749 182.659 265.44C183.192 265.131 183.773 264.976 184.403 264.976ZM192.844 266.336C193.111 265.92 193.479 265.584 193.948 265.328C194.418 265.072 194.967 264.944 195.596 264.944C196.332 264.944 196.999 265.131 197.596 265.504C198.194 265.877 198.663 266.411 199.004 267.104C199.356 267.797 199.532 268.603 199.532 269.52C199.532 270.437 199.356 271.248 199.004 271.952C198.663 272.645 198.194 273.184 197.596 273.568C196.999 273.941 196.332 274.128 195.596 274.128C194.978 274.128 194.428 274 193.948 273.744C193.479 273.488 193.111 273.157 192.844 272.752V278.256H190.108V265.072H192.844V266.336ZM196.748 269.52C196.748 268.837 196.556 268.304 196.172 267.92C195.799 267.525 195.335 267.328 194.78 267.328C194.236 267.328 193.772 267.525 193.388 267.92C193.015 268.315 192.828 268.853 192.828 269.536C192.828 270.219 193.015 270.757 193.388 271.152C193.772 271.547 194.236 271.744 194.78 271.744C195.324 271.744 195.788 271.547 196.172 271.152C196.556 270.747 196.748 270.203 196.748 269.52ZM203.864 262.16V274H201.128V262.16H203.864ZM210.07 274.128C209.196 274.128 208.406 273.941 207.702 273.568C207.009 273.195 206.46 272.661 206.054 271.968C205.66 271.275 205.462 270.464 205.462 269.536C205.462 268.619 205.665 267.813 206.07 267.12C206.476 266.416 207.03 265.877 207.734 265.504C208.438 265.131 209.228 264.944 210.102 264.944C210.977 264.944 211.766 265.131 212.47 265.504C213.174 265.877 213.729 266.416 214.134 267.12C214.54 267.813 214.742 268.619 214.742 269.536C214.742 270.453 214.534 271.264 214.118 271.968C213.713 272.661 213.153 273.195 212.438 273.568C211.734 273.941 210.945 274.128 210.07 274.128ZM210.07 271.76C210.593 271.76 211.036 271.568 211.398 271.184C211.772 270.8 211.958 270.251 211.958 269.536C211.958 268.821 211.777 268.272 211.414 267.888C211.062 267.504 210.625 267.312 210.102 267.312C209.569 267.312 209.126 267.504 208.774 267.888C208.422 268.261 208.246 268.811 208.246 269.536C208.246 270.251 208.417 270.8 208.758 271.184C209.11 271.568 209.548 271.76 210.07 271.76ZM225.474 265.072L219.874 278.24H216.93L218.978 273.696L215.346 265.072H218.402L220.466 270.656L222.514 265.072H225.474ZM235.039 269.392C235.039 269.648 235.023 269.915 234.991 270.192H228.799C228.842 270.747 229.018 271.173 229.327 271.472C229.647 271.76 230.037 271.904 230.495 271.904C231.178 271.904 231.653 271.616 231.919 271.04H234.831C234.682 271.627 234.41 272.155 234.015 272.624C233.631 273.093 233.146 273.461 232.559 273.728C231.973 273.995 231.317 274.128 230.591 274.128C229.717 274.128 228.938 273.941 228.255 273.568C227.573 273.195 227.039 272.661 226.655 271.968C226.271 271.275 226.079 270.464 226.079 269.536C226.079 268.608 226.266 267.797 226.639 267.104C227.023 266.411 227.557 265.877 228.239 265.504C228.922 265.131 229.706 264.944 230.591 264.944C231.455 264.944 232.223 265.125 232.895 265.488C233.567 265.851 234.09 266.368 234.463 267.04C234.847 267.712 235.039 268.496 235.039 269.392ZM232.239 268.672C232.239 268.203 232.079 267.829 231.759 267.552C231.439 267.275 231.039 267.136 230.559 267.136C230.101 267.136 229.711 267.269 229.391 267.536C229.082 267.803 228.89 268.181 228.815 268.672H232.239ZM245.059 269.392C245.059 269.648 245.043 269.915 245.011 270.192H238.819C238.861 270.747 239.037 271.173 239.347 271.472C239.667 271.76 240.056 271.904 240.515 271.904C241.197 271.904 241.672 271.616 241.939 271.04H244.851C244.701 271.627 244.429 272.155 244.035 272.624C243.651 273.093 243.165 273.461 242.579 273.728C241.992 273.995 241.336 274.128 240.611 274.128C239.736 274.128 238.957 273.941 238.275 273.568C237.592 273.195 237.059 272.661 236.675 271.968C236.291 271.275 236.099 270.464 236.099 269.536C236.099 268.608 236.285 267.797 236.659 267.104C237.043 266.411 237.576 265.877 238.259 265.504C238.941 265.131 239.725 264.944 240.611 264.944C241.475 264.944 242.243 265.125 242.915 265.488C243.587 265.851 244.109 266.368 244.483 267.04C244.867 267.712 245.059 268.496 245.059 269.392ZM242.259 268.672C242.259 268.203 242.099 267.829 241.779 267.552C241.459 267.275 241.059 267.136 240.579 267.136C240.12 267.136 239.731 267.269 239.411 267.536C239.101 267.803 238.909 268.181 238.835 268.672H242.259ZM255.189 271.68V274H253.797C252.805 274 252.031 273.76 251.477 273.28C250.922 272.789 250.645 271.995 250.645 270.896V267.344H249.557V265.072H250.645V262.896H253.381V265.072H255.173V267.344H253.381V270.928C253.381 271.195 253.445 271.387 253.573 271.504C253.701 271.621 253.914 271.68 254.213 271.68H255.189ZM260.937 274.128C260.062 274.128 259.273 273.941 258.569 273.568C257.875 273.195 257.326 272.661 256.921 271.968C256.526 271.275 256.329 270.464 256.329 269.536C256.329 268.619 256.531 267.813 256.937 267.12C257.342 266.416 257.897 265.877 258.601 265.504C259.305 265.131 260.094 264.944 260.969 264.944C261.843 264.944 262.633 265.131 263.337 265.504C264.041 265.877 264.595 266.416 265.001 267.12C265.406 267.813 265.609 268.619 265.609 269.536C265.609 270.453 265.401 271.264 264.985 271.968C264.579 272.661 264.019 273.195 263.305 273.568C262.601 273.941 261.811 274.128 260.937 274.128ZM260.937 271.76C261.459 271.76 261.902 271.568 262.265 271.184C262.638 270.8 262.825 270.251 262.825 269.536C262.825 268.821 262.643 268.272 262.281 267.888C261.929 267.504 261.491 267.312 260.969 267.312C260.435 267.312 259.993 267.504 259.641 267.888C259.289 268.261 259.113 268.811 259.113 269.536C259.113 270.251 259.283 270.8 259.625 271.184C259.977 271.568 260.414 271.76 260.937 271.76ZM272.196 271.68V274H270.804C269.812 274 269.039 273.76 268.484 273.28C267.929 272.789 267.652 271.995 267.652 270.896V267.344H266.564V265.072H267.652V262.896H270.388V265.072H272.18V267.344H270.388V270.928C270.388 271.195 270.452 271.387 270.58 271.504C270.708 271.621 270.921 271.68 271.22 271.68H272.196ZM273.336 269.52C273.336 268.603 273.507 267.797 273.848 267.104C274.2 266.411 274.675 265.877 275.272 265.504C275.869 265.131 276.536 264.944 277.272 264.944C277.901 264.944 278.451 265.072 278.92 265.328C279.4 265.584 279.768 265.92 280.024 266.336V265.072H282.76V274H280.024V272.736C279.757 273.152 279.384 273.488 278.904 273.744C278.435 274 277.885 274.128 277.256 274.128C276.531 274.128 275.869 273.941 275.272 273.568C274.675 273.184 274.2 272.645 273.848 271.952C273.507 271.248 273.336 270.437 273.336 269.52ZM280.024 269.536C280.024 268.853 279.832 268.315 279.448 267.92C279.075 267.525 278.616 267.328 278.072 267.328C277.528 267.328 277.064 267.525 276.68 267.92C276.307 268.304 276.12 268.837 276.12 269.52C276.12 270.203 276.307 270.747 276.68 271.152C277.064 271.547 277.528 271.744 278.072 271.744C278.616 271.744 279.075 271.547 279.448 271.152C279.832 270.757 280.024 270.219 280.024 269.536ZM287.636 262.16V274H284.9V262.16H287.636Z" fill="#949494"/>
<path d="M192.445 74.9717C207.461 74.0135 222.459 77.1013 235.875 83.9132C249.291 90.725 260.634 101.011 268.721 113.7C276.808 126.388 281.343 141.014 281.852 156.051C282.362 171.089 278.828 185.988 271.619 199.195C264.41 212.402 253.79 223.432 240.866 231.137C227.942 238.842 213.188 242.938 198.141 242.999C183.095 243.06 168.308 239.083 155.322 231.483C142.337 223.883 131.627 212.939 124.312 199.791L149.297 185.889C154.126 194.567 161.194 201.79 169.765 206.806C178.335 211.822 188.095 214.447 198.026 214.407C207.956 214.367 217.694 211.663 226.224 206.578C234.754 201.492 241.764 194.212 246.522 185.495C251.28 176.779 253.612 166.945 253.276 157.02C252.94 147.095 249.947 137.442 244.609 129.067C239.272 120.693 231.785 113.904 222.93 109.408C214.076 104.912 204.177 102.874 194.266 103.506L192.445 74.9717Z" fill="#0E46A3"/>
<g filter="url(#filter0_d_1_873)">
<path d="M124.781 210.397C115.233 197.273 109.516 181.775 108.262 165.616C107.009 149.458 110.267 133.268 117.678 118.84C125.088 104.411 136.362 92.3056 150.251 83.8624C164.14 75.4193 180.104 70.9677 196.376 71.0002L196.294 111.68C187.557 111.663 178.986 114.053 171.529 118.586C164.071 123.12 158.018 129.619 154.039 137.366C150.06 145.114 148.31 153.806 148.984 162.482C149.657 171.158 152.726 179.479 157.853 186.526L124.781 210.397Z" fill="#186F65"/>
</g>
<g filter="url(#filter1_d_1_873)">
<rect x="60" y="88" width="83" height="50" rx="10" fill="white" shape-rendering="crispEdges"/>
<g clip-path="url(#clip0_1_873)">
<path d="M76.5001 100C78.2951 100 79.7501 101.455 79.7501 103.25C79.7501 105.045 78.2951 106.5 76.5001 106.5C74.7052 106.5 73.2501 105.045 73.2501 103.25C73.2501 101.455 74.7052 100 76.5001 100ZM82.5575 117.986L80.12 108.236C80.0541 107.972 79.9019 107.738 79.6877 107.571C79.4734 107.403 79.2094 107.313 78.9376 107.312H78.3608C77.2075 107.843 75.8425 107.866 74.6395 107.312H74.0626C73.7909 107.313 73.5269 107.403 73.3126 107.571C73.0984 107.738 72.9462 107.972 72.8803 108.236L70.4428 117.986C70.2508 118.754 70.8321 119.5 71.6251 119.5H74.4689V124.781C74.4689 125.454 75.0145 126 75.6876 126H77.3126C77.9858 126 78.5314 125.454 78.5314 124.781V119.5H81.3751C82.1669 119.5 82.7498 118.755 82.5575 117.986Z" fill="#990000"/>
</g>
<path d="M94.2 109.18C94.2933 107.953 94.7667 106.993 95.62 106.3C96.4733 105.607 97.58 105.26 98.94 105.26C99.8467 105.26 100.627 105.427 101.28 105.76C101.947 106.08 102.447 106.52 102.78 107.08C103.127 107.64 103.3 108.273 103.3 108.98C103.3 109.807 103.06 110.52 102.58 111.12C102.113 111.72 101.5 112.107 100.74 112.28V112.38C101.607 112.593 102.293 113.013 102.8 113.64C103.307 114.267 103.56 115.087 103.56 116.1C103.56 116.86 103.387 117.547 103.04 118.16C102.693 118.76 102.173 119.233 101.48 119.58C100.787 119.927 99.9533 120.1 98.98 120.1C97.5667 120.1 96.4067 119.733 95.5 119C94.5933 118.253 94.0867 117.2 93.98 115.84H95.74C95.8333 116.64 96.16 117.293 96.72 117.8C97.28 118.307 98.0267 118.56 98.96 118.56C99.8933 118.56 100.6 118.32 101.08 117.84C101.573 117.347 101.82 116.713 101.82 115.94C101.82 114.94 101.487 114.22 100.82 113.78C100.153 113.34 99.1467 113.12 97.8 113.12H97.34V111.6H97.82C99.0467 111.587 99.9733 111.387 100.6 111C101.227 110.6 101.54 109.987 101.54 109.16C101.54 108.453 101.307 107.887 100.84 107.46C100.387 107.033 99.7333 106.82 98.88 106.82C98.0533 106.82 97.3867 107.033 96.88 107.46C96.3733 107.887 96.0733 108.46 95.98 109.18H94.2ZM115.437 107.12H108.417V111.68C108.724 111.253 109.177 110.907 109.777 110.64C110.377 110.36 111.024 110.22 111.717 110.22C112.824 110.22 113.724 110.453 114.417 110.92C115.111 111.373 115.604 111.967 115.897 112.7C116.204 113.42 116.357 114.187 116.357 115C116.357 115.96 116.177 116.82 115.817 117.58C115.457 118.34 114.904 118.94 114.157 119.38C113.424 119.82 112.511 120.04 111.417 120.04C110.017 120.04 108.884 119.68 108.017 118.96C107.151 118.24 106.624 117.28 106.437 116.08H108.217C108.391 116.84 108.757 117.433 109.317 117.86C109.877 118.287 110.584 118.5 111.437 118.5C112.491 118.5 113.284 118.187 113.817 117.56C114.351 116.92 114.617 116.08 114.617 115.04C114.617 114 114.351 113.2 113.817 112.64C113.284 112.067 112.497 111.78 111.457 111.78C110.751 111.78 110.131 111.953 109.597 112.3C109.077 112.633 108.697 113.093 108.457 113.68H106.737V105.52H115.437V107.12ZM118.576 108.8C118.576 107.893 118.849 107.173 119.396 106.64C119.943 106.093 120.643 105.82 121.496 105.82C122.349 105.82 123.049 106.093 123.596 106.64C124.143 107.173 124.416 107.893 124.416 108.8C124.416 109.72 124.143 110.453 123.596 111C123.049 111.533 122.349 111.8 121.496 111.8C120.643 111.8 119.943 111.533 119.396 111C118.849 110.453 118.576 109.72 118.576 108.8ZM130.256 106.04L122.156 120H120.356L128.456 106.04H130.256ZM121.496 106.94C121.043 106.94 120.683 107.1 120.416 107.42C120.163 107.727 120.036 108.187 120.036 108.8C120.036 109.413 120.163 109.88 120.416 110.2C120.683 110.52 121.043 110.68 121.496 110.68C121.949 110.68 122.309 110.52 122.576 110.2C122.843 109.867 122.976 109.4 122.976 108.8C122.976 108.187 122.843 107.727 122.576 107.42C122.309 107.1 121.949 106.94 121.496 106.94ZM126.236 117.24C126.236 116.32 126.509 115.593 127.056 115.06C127.603 114.513 128.303 114.24 129.156 114.24C130.009 114.24 130.703 114.513 131.236 115.06C131.783 115.593 132.056 116.32 132.056 117.24C132.056 118.147 131.783 118.873 131.236 119.42C130.703 119.967 130.009 120.24 129.156 120.24C128.303 120.24 127.603 119.973 127.056 119.44C126.509 118.893 126.236 118.16 126.236 117.24ZM129.136 115.38C128.683 115.38 128.323 115.54 128.056 115.86C127.789 116.167 127.656 116.627 127.656 117.24C127.656 117.84 127.789 118.3 128.056 118.62C128.323 118.927 128.683 119.08 129.136 119.08C129.589 119.08 129.949 118.927 130.216 118.62C130.483 118.3 130.616 117.84 130.616 117.24C130.616 116.627 130.483 116.167 130.216 115.86C129.949 115.54 129.589 115.38 129.136 115.38Z" fill="black"/>
</g>
<g filter="url(#filter2_d_1_873)">
<rect x="246.5" y="182.854" width="76.7735" height="48.0055" rx="9.50276" fill="white" shape-rendering="crispEdges"/>
<g clip-path="url(#clip1_1_873)">
<path d="M260.636 194.502C262.341 194.502 263.724 195.885 263.724 197.591C263.724 199.296 262.341 200.679 260.636 200.679C258.93 200.679 257.547 199.296 257.547 197.591C257.547 195.885 258.93 194.502 260.636 194.502ZM262.952 201.451H262.404C261.308 201.955 260.011 201.977 258.867 201.451H258.319C257.04 201.451 256.003 202.488 256.003 203.767V210.33C256.003 210.97 256.521 211.488 257.161 211.488H257.933V218.051C257.933 218.691 258.452 219.209 259.091 219.209H262.18C262.819 219.209 263.338 218.691 263.338 218.051V211.488H264.11C264.75 211.488 265.268 210.97 265.268 210.33V203.767C265.268 202.488 264.231 201.451 262.952 201.451Z" fill="#0E46A3"/>
</g>
<path d="M283.608 202.884C283.33 201.478 282.462 200.775 281.005 200.775C279.877 200.775 279.034 201.212 278.477 202.086C277.919 202.948 277.647 204.373 277.66 206.362C277.951 205.703 278.432 205.19 279.104 204.823C279.788 204.443 280.548 204.253 281.385 204.253C282.69 204.253 283.729 204.658 284.502 205.469C285.287 206.28 285.68 207.401 285.68 208.833C285.68 209.694 285.509 210.467 285.167 211.152C284.837 211.836 284.33 212.381 283.646 212.786C282.975 213.191 282.158 213.394 281.195 213.394C279.89 213.394 278.87 213.103 278.135 212.52C277.4 211.937 276.887 211.133 276.595 210.106C276.304 209.08 276.158 207.813 276.158 206.305C276.158 201.655 277.78 199.33 281.024 199.33C282.265 199.33 283.241 199.666 283.95 200.337C284.66 201.009 285.078 201.858 285.205 202.884H283.608ZM281.024 205.716C280.479 205.716 279.966 205.83 279.484 206.058C279.003 206.273 278.61 206.609 278.306 207.065C278.014 207.509 277.869 208.054 277.869 208.7C277.869 209.663 278.147 210.448 278.705 211.057C279.262 211.652 280.061 211.95 281.1 211.95C281.986 211.95 282.69 211.677 283.209 211.133C283.741 210.575 284.007 209.828 284.007 208.89C284.007 207.902 283.754 207.129 283.247 206.571C282.74 206.001 281.999 205.716 281.024 205.716ZM296.965 201.117H290.294V205.45C290.585 205.044 291.016 204.715 291.586 204.462C292.156 204.196 292.771 204.062 293.43 204.062C294.481 204.062 295.337 204.284 295.995 204.728C296.654 205.158 297.123 205.722 297.402 206.419C297.693 207.103 297.839 207.832 297.839 208.605C297.839 209.517 297.668 210.334 297.326 211.057C296.984 211.779 296.458 212.349 295.748 212.767C295.051 213.185 294.184 213.394 293.145 213.394C291.814 213.394 290.737 213.052 289.914 212.368C289.09 211.684 288.59 210.771 288.412 209.631H290.104C290.268 210.353 290.617 210.917 291.149 211.323C291.681 211.728 292.353 211.931 293.164 211.931C294.165 211.931 294.918 211.633 295.425 211.038C295.932 210.429 296.185 209.631 296.185 208.643C296.185 207.655 295.932 206.894 295.425 206.362C294.918 205.817 294.171 205.545 293.183 205.545C292.511 205.545 291.922 205.71 291.415 206.039C290.921 206.356 290.56 206.793 290.332 207.35H288.697V199.596H296.965V201.117ZM299.947 202.713C299.947 201.852 300.207 201.167 300.726 200.661C301.246 200.141 301.911 199.881 302.722 199.881C303.533 199.881 304.198 200.141 304.718 200.661C305.237 201.167 305.497 201.852 305.497 202.713C305.497 203.587 305.237 204.284 304.718 204.804C304.198 205.311 303.533 205.564 302.722 205.564C301.911 205.564 301.246 205.311 300.726 204.804C300.207 204.284 299.947 203.587 299.947 202.713ZM311.046 200.09L303.349 213.356H301.639L309.336 200.09H311.046ZM302.722 200.946C302.291 200.946 301.949 201.098 301.696 201.402C301.455 201.693 301.335 202.13 301.335 202.713C301.335 203.296 301.455 203.739 301.696 204.043C301.949 204.348 302.291 204.5 302.722 204.5C303.153 204.5 303.495 204.348 303.748 204.043C304.002 203.727 304.128 203.283 304.128 202.713C304.128 202.13 304.002 201.693 303.748 201.402C303.495 201.098 303.153 200.946 302.722 200.946ZM307.226 210.733C307.226 209.859 307.486 209.169 308.006 208.662C308.525 208.142 309.19 207.883 310.001 207.883C310.812 207.883 311.471 208.142 311.978 208.662C312.497 209.169 312.757 209.859 312.757 210.733C312.757 211.595 312.497 212.286 311.978 212.805C311.471 213.325 310.812 213.584 310.001 213.584C309.19 213.584 308.525 213.331 308.006 212.824C307.486 212.305 307.226 211.608 307.226 210.733ZM309.982 208.966C309.551 208.966 309.209 209.118 308.956 209.422C308.702 209.713 308.576 210.151 308.576 210.733C308.576 211.304 308.702 211.741 308.956 212.045C309.209 212.336 309.551 212.482 309.982 212.482C310.413 212.482 310.755 212.336 311.008 212.045C311.262 211.741 311.389 211.304 311.389 210.733C311.389 210.151 311.262 209.713 311.008 209.422C310.755 209.118 310.413 208.966 309.982 208.966Z" fill="black"/>
</g>
<defs>
<filter id="filter0_d_1_873" x="96.5967" y="67.1989" width="111.182" height="162.203" filterUnits="userSpaceOnUse" color-interpolation-filters="sRGB">
<feFlood flood-opacity="0" result="BackgroundImageFix"/>
<feColorMatrix in="SourceAlpha" type="matrix" values="0 0 0 0 0 0 0 0 0 0 0 0 0 0 0 0 0 0 127 0" result="hardAlpha"/>
<feOffset dy="7.60221"/>
<feGaussianBlur stdDeviation="5.70166"/>
<feComposite in2="hardAlpha" operator="out"/>
<feColorMatrix type="matrix" values="0 0 0 0 0.52849 0 0 0 0 0.566891 0 0 0 0 0.9125 0 0 0 0.3 0"/>
<feBlend mode="normal" in2="BackgroundImageFix" result="effect1_dropShadow_1_873"/>
<feBlend mode="normal" in="SourceGraphic" in2="effect1_dropShadow_1_873" result="shape"/>
</filter>
<filter id="filter1_d_1_873" x="0" y="48" width="203" height="170" filterUnits="userSpaceOnUse" color-interpolation-filters="sRGB">
<feFlood flood-opacity="0" result="BackgroundImageFix"/>
<feColorMatrix in="SourceAlpha" type="matrix" values="0 0 0 0 0 0 0 0 0 0 0 0 0 0 0 0 0 0 127 0" result="hardAlpha"/>
<feOffset dy="20"/>
<feGaussianBlur stdDeviation="30"/>
<feComposite in2="hardAlpha" operator="out"/>
<feColorMatrix type="matrix" values="0 0 0 0 0 0 0 0 0 0 0 0 0 0 0 0 0 0 0.05 0"/>
<feBlend mode="normal" in2="BackgroundImageFix" result="effect1_dropShadow_1_873"/>
<feBlend mode="normal" in="SourceGraphic" in2="effect1_dropShadow_1_873" result="shape"/>
</filter>
<filter id="filter2_d_1_873" x="189.483" y="144.842" width="190.807" height="162.039" filterUnits="userSpaceOnUse" color-interpolation-filters="sRGB">
<feFlood flood-opacity="0" result="BackgroundImageFix"/>
<feColorMatrix in="SourceAlpha" type="matrix" values="0 0 0 0 0 0 0 0 0 0 0 0 0 0 0 0 0 0 127 0" result="hardAlpha"/>
<feOffset dy="19.0055"/>
<feGaussianBlur stdDeviation="28.5083"/>
<feComposite in2="hardAlpha" operator="out"/>
<feColorMatrix type="matrix" values="0 0 0 0 0 0 0 0 0 0 0 0 0 0 0 0 0 0 0.05 0"/>
<feBlend mode="normal" in2="BackgroundImageFix" result="effect1_dropShadow_1_873"/>
<feBlend mode="normal" in="SourceGraphic" in2="effect1_dropShadow_1_873" result="shape"/>
</filter>
<clipPath id="clip0_1_873">
<rect width="13" height="26" fill="white" transform="translate(70 100)"/>
</clipPath>
<clipPath id="clip1_1_873">
<rect width="9.26519" height="24.7072" fill="white" transform="translate(256.003 194.503)"/>
</clipPath>
</defs>
</svg>
