<svg width="29" height="28" viewBox="0 0 29 28" fill="none" xmlns="http://www.w3.org/2000/svg">
<path d="M9.75214 26.4777H4.98843C2.61837 26.4777 1.47461 25.3953 1.47461 23.1607V4.77192C1.47461 2.53733 2.63016 1.45496 4.98843 1.45496H9.75214C12.1222 1.45496 13.266 2.53733 13.266 4.77192V23.1607C13.266 25.3953 12.1104 26.4777 9.75214 26.4777ZM4.98843 3.20073C3.49093 3.20073 3.24331 3.59644 3.24331 4.77192V23.1607C3.24331 24.3362 3.49093 24.7319 4.98843 24.7319H9.75214C11.2496 24.7319 11.4973 24.3362 11.4973 23.1607V4.77192C11.4973 3.59644 11.2496 3.20073 9.75214 3.20073H4.98843Z" fill="#292D32"/>
<path d="M23.3112 16.0031H18.5475C16.1775 16.0031 15.0337 14.9207 15.0337 12.6861V4.77192C15.0337 2.53733 16.1892 1.45496 18.5475 1.45496H23.3112C25.6813 1.45496 26.825 2.53733 26.825 4.77192V12.6861C26.825 14.9207 25.6695 16.0031 23.3112 16.0031ZM18.5475 3.20073C17.05 3.20073 16.8024 3.59644 16.8024 4.77192V12.6861C16.8024 13.8616 17.05 14.2573 18.5475 14.2573H23.3112C24.8087 14.2573 25.0563 13.8616 25.0563 12.6861V4.77192C25.0563 3.59644 24.8087 3.20073 23.3112 3.20073H18.5475Z" fill="#292D32"/>
<path d="M23.3112 26.477H18.5475C16.1775 26.477 15.0337 25.3947 15.0337 23.1601V21.0651C15.0337 18.8305 16.1892 17.7482 18.5475 17.7482H23.3112C25.6813 17.7482 26.825 18.8305 26.825 21.0651V23.1601C26.825 25.3947 25.6695 26.477 23.3112 26.477ZM18.5475 19.4939C17.05 19.4939 16.8024 19.8897 16.8024 21.0651V23.1601C16.8024 24.3355 17.05 24.7313 18.5475 24.7313H23.3112C24.8087 24.7313 25.0563 24.3355 25.0563 23.1601V21.0651C25.0563 19.8897 24.8087 19.4939 23.3112 19.4939H18.5475Z" fill="#292D32"/>
</svg>
