<svg width="59" height="27" viewBox="0 0 59 27" fill="none" xmlns="http://www.w3.org/2000/svg">
<rect width="59" height="27" rx="13.5" fill="#C10A0A" fill-opacity="0.15"/>
<path d="M9.83364 14.4253L12.167 12.092L15.4961 15.4211L16.8336 14.0835V17.5835H13.3336L14.6712 16.2459L12.167 13.7417L9.83364 16.075L5.33789 11.5792L6.16272 10.7544L9.83364 14.4253Z" fill="#C71026"/>
<path d="M28.154 9.572L24.64 18H22.19L25.746 9.838H21.392V7.794H28.154V9.572ZM30.6202 18.112C30.2002 18.112 29.8549 17.9907 29.5842 17.748C29.3229 17.496 29.1922 17.188 29.1922 16.824C29.1922 16.4507 29.3229 16.138 29.5842 15.886C29.8549 15.634 30.2002 15.508 30.6202 15.508C31.0309 15.508 31.3669 15.634 31.6282 15.886C31.8989 16.138 32.0342 16.4507 32.0342 16.824C32.0342 17.188 31.8989 17.496 31.6282 17.748C31.3669 17.9907 31.0309 18.112 30.6202 18.112ZM33.3534 12.75C33.3534 11.1447 33.6614 9.88 34.2774 8.956C34.9027 8.032 35.906 7.57 37.2874 7.57C38.6687 7.57 39.6674 8.032 40.2834 8.956C40.9087 9.88 41.2214 11.1447 41.2214 12.75C41.2214 14.374 40.9087 15.648 40.2834 16.572C39.6674 17.496 38.6687 17.958 37.2874 17.958C35.906 17.958 34.9027 17.496 34.2774 16.572C33.6614 15.648 33.3534 14.374 33.3534 12.75ZM38.8694 12.75C38.8694 11.8073 38.7667 11.084 38.5614 10.58C38.356 10.0667 37.9314 9.81 37.2874 9.81C36.6434 9.81 36.2187 10.0667 36.0134 10.58C35.808 11.084 35.7054 11.8073 35.7054 12.75C35.7054 13.3847 35.7427 13.912 35.8174 14.332C35.892 14.7427 36.0414 15.0787 36.2654 15.34C36.4987 15.592 36.8394 15.718 37.2874 15.718C37.7354 15.718 38.0714 15.592 38.2954 15.34C38.5287 15.0787 38.6827 14.7427 38.7574 14.332C38.832 13.912 38.8694 13.3847 38.8694 12.75ZM42.4302 10.356C42.4302 9.6 42.6448 9.01667 43.0742 8.606C43.5128 8.19533 44.0775 7.99 44.7682 7.99C45.4588 7.99 46.0188 8.19533 46.4482 8.606C46.8775 9.01667 47.0922 9.6 47.0922 10.356C47.0922 11.112 46.8775 11.6953 46.4482 12.106C46.0188 12.5167 45.4588 12.722 44.7682 12.722C44.0775 12.722 43.5128 12.5167 43.0742 12.106C42.6448 11.6953 42.4302 11.112 42.4302 10.356ZM51.9362 8.144L46.5462 18H44.2362L49.6262 8.144H51.9362ZM44.7542 9.39C44.3062 9.39 44.0822 9.712 44.0822 10.356C44.0822 10.9907 44.3062 11.308 44.7542 11.308C44.9688 11.308 45.1368 11.2287 45.2582 11.07C45.3795 10.9113 45.4402 10.6733 45.4402 10.356C45.4402 9.712 45.2115 9.39 44.7542 9.39ZM49.0942 15.788C49.0942 15.032 49.3088 14.4487 49.7382 14.038C50.1675 13.6273 50.7275 13.422 51.4182 13.422C52.1088 13.422 52.6688 13.6273 53.0982 14.038C53.5275 14.4487 53.7422 15.032 53.7422 15.788C53.7422 16.544 53.5275 17.1273 53.0982 17.538C52.6688 17.9487 52.1088 18.154 51.4182 18.154C50.7275 18.154 50.1675 17.9487 49.7382 17.538C49.3088 17.1273 49.0942 16.544 49.0942 15.788ZM51.4042 14.822C51.1895 14.822 51.0215 14.9013 50.9002 15.06C50.7882 15.2187 50.7322 15.4613 50.7322 15.788C50.7322 16.4227 50.9562 16.74 51.4042 16.74C51.6188 16.74 51.7868 16.6607 51.9082 16.502C52.0295 16.3433 52.0902 16.1053 52.0902 15.788C52.0902 15.4707 52.0295 15.2327 51.9082 15.074C51.7868 14.906 51.6188 14.822 51.4042 14.822Z" fill="#C71026"/>
</svg>
