<svg width="1093" height="362" viewBox="0 0 1093 362" fill="none" xmlns="http://www.w3.org/2000/svg">
<rect x="1" y="1" width="1091" height="360" rx="5" fill="white" stroke="#ECEEF7" stroke-width="2"/>
<rect x="944" y="28" width="123" height="41" rx="12" fill="#F7F7F7"/>
<path d="M961.432 43.242V44.278H958.772V53H957.498V44.278H954.824V43.242H961.432ZM966.948 45.188C967.526 45.188 968.049 45.314 968.516 45.566C968.982 45.8087 969.346 46.1773 969.608 46.672C969.878 47.1667 970.014 47.7687 970.014 48.478V53H968.754V48.66C968.754 47.8947 968.562 47.3113 968.18 46.91C967.797 46.4993 967.274 46.294 966.612 46.294C965.94 46.294 965.403 46.504 965.002 46.924C964.61 47.344 964.414 47.9553 964.414 48.758V53H963.14V42.64H964.414V46.42C964.666 46.028 965.011 45.7247 965.45 45.51C965.898 45.2953 966.397 45.188 966.948 45.188ZM972.893 44.082C972.65 44.082 972.445 43.998 972.277 43.83C972.109 43.662 972.025 43.4567 972.025 43.214C972.025 42.9713 972.109 42.766 972.277 42.598C972.445 42.43 972.65 42.346 972.893 42.346C973.126 42.346 973.322 42.43 973.481 42.598C973.649 42.766 973.733 42.9713 973.733 43.214C973.733 43.4567 973.649 43.662 973.481 43.83C973.322 43.998 973.126 44.082 972.893 44.082ZM973.509 45.328V53H972.235V45.328H973.509ZM978.536 53.126C977.948 53.126 977.421 53.028 976.954 52.832C976.487 52.6267 976.119 52.3467 975.848 51.992C975.577 51.628 975.428 51.2127 975.4 50.746H976.716C976.753 51.1287 976.931 51.4413 977.248 51.684C977.575 51.9267 977.999 52.048 978.522 52.048C979.007 52.048 979.39 51.9407 979.67 51.726C979.95 51.5113 980.09 51.2407 980.09 50.914C980.09 50.578 979.941 50.3307 979.642 50.172C979.343 50.004 978.881 49.8407 978.256 49.682C977.687 49.5327 977.22 49.3833 976.856 49.234C976.501 49.0753 976.193 48.8467 975.932 48.548C975.68 48.24 975.554 47.8387 975.554 47.344C975.554 46.952 975.671 46.5927 975.904 46.266C976.137 45.9393 976.469 45.6827 976.898 45.496C977.327 45.3 977.817 45.202 978.368 45.202C979.217 45.202 979.903 45.4167 980.426 45.846C980.949 46.2753 981.229 46.8633 981.266 47.61H979.992C979.964 47.2087 979.801 46.8867 979.502 46.644C979.213 46.4013 978.821 46.28 978.326 46.28C977.869 46.28 977.505 46.378 977.234 46.574C976.963 46.77 976.828 47.0267 976.828 47.344C976.828 47.596 976.907 47.806 977.066 47.974C977.234 48.1327 977.439 48.2633 977.682 48.366C977.934 48.4593 978.279 48.5667 978.718 48.688C979.269 48.8373 979.717 48.9867 980.062 49.136C980.407 49.276 980.701 49.4907 980.944 49.78C981.196 50.0693 981.327 50.4473 981.336 50.914C981.336 51.334 981.219 51.712 980.986 52.048C980.753 52.384 980.421 52.65 979.992 52.846C979.572 53.0327 979.087 53.126 978.536 53.126ZM997.045 43.312V53H995.771V45.776L992.551 53H991.655L988.421 45.762V53H987.147V43.312H988.519L992.103 51.32L995.687 43.312H997.045ZM1002.69 53.126C1001.97 53.126 1001.32 52.9627 1000.73 52.636C1000.15 52.3093 999.696 51.8473 999.36 51.25C999.033 50.6433 998.87 49.9433 998.87 49.15C998.87 48.366 999.038 47.6753 999.374 47.078C999.719 46.4713 1000.19 46.0093 1000.77 45.692C1001.36 45.3653 1002.02 45.202 1002.75 45.202C1003.48 45.202 1004.13 45.3653 1004.72 45.692C1005.31 46.0093 1005.77 46.4667 1006.11 47.064C1006.45 47.6613 1006.63 48.3567 1006.63 49.15C1006.63 49.9433 1006.45 50.6433 1006.09 51.25C1005.75 51.8473 1005.28 52.3093 1004.68 52.636C1004.08 52.9627 1003.42 53.126 1002.69 53.126ZM1002.69 52.006C1003.15 52.006 1003.58 51.8987 1003.98 51.684C1004.38 51.4693 1004.7 51.1473 1004.95 50.718C1005.2 50.2887 1005.32 49.766 1005.32 49.15C1005.32 48.534 1005.2 48.0113 1004.96 47.582C1004.72 47.1527 1004.4 46.8353 1004.01 46.63C1003.62 46.4153 1003.19 46.308 1002.73 46.308C1002.27 46.308 1001.84 46.4153 1001.45 46.63C1001.06 46.8353 1000.75 47.1527 1000.52 47.582C1000.29 48.0113 1000.17 48.534 1000.17 49.15C1000.17 49.7753 1000.28 50.3027 1000.51 50.732C1000.74 51.1613 1001.05 51.4833 1001.43 51.698C1001.81 51.9033 1002.23 52.006 1002.69 52.006ZM1012.18 45.188C1013.11 45.188 1013.87 45.4727 1014.45 46.042C1015.03 46.602 1015.31 47.414 1015.31 48.478V53H1014.05V48.66C1014.05 47.8947 1013.86 47.3113 1013.48 46.91C1013.1 46.4993 1012.58 46.294 1011.91 46.294C1011.24 46.294 1010.7 46.504 1010.3 46.924C1009.91 47.344 1009.71 47.9553 1009.71 48.758V53H1008.44V45.328H1009.71V46.42C1009.97 46.028 1010.31 45.7247 1010.74 45.51C1011.18 45.2953 1011.66 45.188 1012.18 45.188ZM1019.09 46.378V50.9C1019.09 51.2733 1019.17 51.5393 1019.33 51.698C1019.49 51.8473 1019.76 51.922 1020.15 51.922H1021.09V53H1019.94C1019.23 53 1018.7 52.8367 1018.35 52.51C1017.99 52.1833 1017.82 51.6467 1017.82 50.9V46.378H1016.82V45.328H1017.82V43.396H1019.09V45.328H1021.09V46.378H1019.09ZM1026.58 45.188C1027.16 45.188 1027.68 45.314 1028.15 45.566C1028.62 45.8087 1028.98 46.1773 1029.24 46.672C1029.51 47.1667 1029.65 47.7687 1029.65 48.478V53H1028.39V48.66C1028.39 47.8947 1028.2 47.3113 1027.82 46.91C1027.43 46.4993 1026.91 46.294 1026.25 46.294C1025.58 46.294 1025.04 46.504 1024.64 46.924C1024.25 47.344 1024.05 47.9553 1024.05 48.758V53H1022.78V42.64H1024.05V46.42C1024.3 46.028 1024.65 45.7247 1025.09 45.51C1025.53 45.2953 1026.03 45.188 1026.58 45.188Z" fill="#060606"/>
<path d="M1043.67 44L1049 49.3333L1054.33 44" stroke="black" stroke-width="2" stroke-linecap="round" stroke-linejoin="round"/>
<path d="M41.246 39.2735V49.9819C41.246 51.6396 40.7756 52.9166 39.8347 53.8127C38.9087 54.7088 37.6542 55.1568 36.0711 55.1568C34.4133 55.1568 33.0841 54.6864 32.0834 53.7455C31.0828 52.8046 30.5825 51.4679 30.5825 49.7354H34.3909C34.3909 50.3926 34.5253 50.8929 34.7941 51.2364C35.063 51.565 35.4513 51.7292 35.959 51.7292C36.422 51.7292 36.7805 51.5799 37.0344 51.2812C37.2883 50.9825 37.4152 50.5494 37.4152 49.9819V39.2735H41.246ZM50.2546 55.1792C49.0299 55.1792 47.9248 54.9179 46.939 54.3951C45.9683 53.8724 45.1991 53.1257 44.6316 52.1549C44.079 51.1841 43.8027 50.0491 43.8027 48.7497C43.8027 47.4653 44.0865 46.3377 44.654 45.367C45.2215 44.3812 45.9981 43.627 46.9838 43.1043C47.9696 42.5816 49.0747 42.3202 50.2994 42.3202C51.5241 42.3202 52.6293 42.5816 53.615 43.1043C54.6007 43.627 55.3773 44.3812 55.9448 45.367C56.5124 46.3377 56.7961 47.4653 56.7961 48.7497C56.7961 50.0341 56.5049 51.1692 55.9224 52.1549C55.3549 53.1257 54.5708 53.8724 53.5702 54.3951C52.5845 54.9179 51.4793 55.1792 50.2546 55.1792ZM50.2546 51.8637C50.9864 51.8637 51.6062 51.5948 52.114 51.0572C52.6367 50.5195 52.8981 49.7504 52.8981 48.7497C52.8981 47.7491 52.6442 46.9799 52.1364 46.4423C51.6436 45.9046 51.0312 45.6358 50.2994 45.6358C49.5527 45.6358 48.9329 45.9046 48.44 46.4423C47.9472 46.965 47.7007 47.7341 47.7007 48.7497C47.7007 49.7504 47.9397 50.5195 48.4176 51.0572C48.9105 51.5948 49.5228 51.8637 50.2546 51.8637ZM62.8833 44.2692C63.2417 43.6868 63.757 43.2163 64.4291 42.8579C65.1011 42.4994 65.8703 42.3202 66.7365 42.3202C67.767 42.3202 68.7004 42.5816 69.5368 43.1043C70.3732 43.627 71.0303 44.3738 71.5082 45.3445C72.0011 46.3153 72.2475 47.4429 72.2475 48.7273C72.2475 50.0117 72.0011 51.1468 71.5082 52.1325C71.0303 53.1033 70.3732 53.8575 69.5368 54.3951C68.7004 54.9179 67.767 55.1792 66.7365 55.1792C65.8553 55.1792 65.0862 55.0075 64.4291 54.664C63.7719 54.3055 63.2567 53.8351 62.8833 53.2526V55H59.0525V38.4222H62.8833V44.2692ZM68.3495 48.7273C68.3495 47.7715 68.0806 47.0247 67.543 46.4871C67.0203 45.9345 66.3706 45.6582 65.594 45.6582C64.8323 45.6582 64.1826 45.9345 63.645 46.4871C63.1222 47.0397 62.8609 47.7939 62.8609 48.7497C62.8609 49.7056 63.1222 50.4598 63.645 51.0124C64.1826 51.565 64.8323 51.8413 65.594 51.8413C66.3557 51.8413 67.0053 51.565 67.543 51.0124C68.0806 50.4448 68.3495 49.6832 68.3495 48.7273ZM85.1429 55.1568C83.9929 55.1568 82.9624 54.9701 82.0514 54.5968C81.1403 54.2234 80.4085 53.6708 79.8559 52.939C79.3183 52.2072 79.0345 51.326 79.0046 50.2955H83.0819C83.1416 50.878 83.3432 51.326 83.6867 51.6396C84.0302 51.9383 84.4783 52.0877 85.0309 52.0877C85.5984 52.0877 86.0465 51.9607 86.375 51.7068C86.7036 51.438 86.8679 51.0721 86.8679 50.6091C86.8679 50.2208 86.7335 49.8997 86.4646 49.6458C86.2108 49.3919 85.8897 49.1828 85.5013 49.0185C85.128 48.8543 84.5903 48.6676 83.8884 48.4585C82.8728 48.1449 82.0439 47.8312 81.4017 47.5176C80.7595 47.204 80.2069 46.741 79.7439 46.1286C79.2809 45.5163 79.0494 44.7173 79.0494 43.7316C79.0494 42.2679 79.5796 41.1254 80.64 40.304C81.7004 39.4676 83.0819 39.0495 84.7845 39.0495C86.5169 39.0495 87.9133 39.4676 88.9737 40.304C90.0341 41.1254 90.6016 42.2754 90.6763 43.754H86.5319C86.502 43.2462 86.3153 42.8504 85.9718 42.5666C85.6283 42.2679 85.1877 42.1186 84.65 42.1186C84.1871 42.1186 83.8137 42.2455 83.5299 42.4994C83.2462 42.7384 83.1043 43.0894 83.1043 43.5524C83.1043 44.0601 83.3432 44.4559 83.8212 44.7397C84.2991 45.0234 85.0458 45.3296 86.0614 45.6582C87.077 46.0017 87.8984 46.3303 88.5257 46.6439C89.1679 46.9575 89.7205 47.413 90.1835 48.0104C90.6464 48.6078 90.8779 49.377 90.8779 50.3179C90.8779 51.214 90.6464 52.0279 90.1835 52.7598C89.7354 53.4916 89.0783 54.074 88.212 54.5071C87.3458 54.9403 86.3228 55.1568 85.1429 55.1568ZM100.427 51.7516V55H98.4776C97.0887 55 96.0059 54.664 95.2293 53.9919C94.4526 53.3049 94.0643 52.1922 94.0643 50.6539V45.6806H92.541V42.4994H94.0643V39.4527H97.8951V42.4994H100.404V45.6806H97.8951V50.6987C97.8951 51.0721 97.9848 51.3409 98.164 51.5052C98.3432 51.6695 98.6419 51.7516 99.0601 51.7516H100.427ZM102.023 48.7273C102.023 47.4429 102.262 46.3153 102.74 45.3445C103.233 44.3738 103.897 43.627 104.733 43.1043C105.57 42.5816 106.503 42.3202 107.534 42.3202C108.415 42.3202 109.184 42.4994 109.841 42.8579C110.513 43.2163 111.029 43.6868 111.387 44.2692V42.4994H115.218V55H111.387V53.2302C111.014 53.8127 110.491 54.2831 109.819 54.6416C109.162 55 108.393 55.1792 107.511 55.1792C106.496 55.1792 105.57 54.9179 104.733 54.3951C103.897 53.8575 103.233 53.1033 102.74 52.1325C102.262 51.1468 102.023 50.0117 102.023 48.7273ZM111.387 48.7497C111.387 47.7939 111.118 47.0397 110.581 46.4871C110.058 45.9345 109.416 45.6582 108.654 45.6582C107.892 45.6582 107.243 45.9345 106.705 46.4871C106.182 47.0247 105.921 47.7715 105.921 48.7273C105.921 49.6832 106.182 50.4448 106.705 51.0124C107.243 51.565 107.892 51.8413 108.654 51.8413C109.416 51.8413 110.058 51.565 110.581 51.0124C111.118 50.4598 111.387 49.7056 111.387 48.7497ZM125.18 51.7516V55H123.231C121.842 55 120.76 54.664 119.983 53.9919C119.206 53.3049 118.818 52.1922 118.818 50.6539V45.6806H117.295V42.4994H118.818V39.4527H122.649V42.4994H125.158V45.6806H122.649V50.6987C122.649 51.0721 122.739 51.3409 122.918 51.5052C123.097 51.6695 123.396 51.7516 123.814 51.7516H125.18ZM129.465 41.2001C128.793 41.2001 128.24 41.0059 127.807 40.6176C127.389 40.2144 127.18 39.7215 127.18 39.1391C127.18 38.5417 127.389 38.0488 127.807 37.6605C128.24 37.2573 128.793 37.0556 129.465 37.0556C130.122 37.0556 130.66 37.2573 131.078 37.6605C131.511 38.0488 131.728 38.5417 131.728 39.1391C131.728 39.7215 131.511 40.2144 131.078 40.6176C130.66 41.0059 130.122 41.2001 129.465 41.2001ZM131.369 42.4994V55H127.538V42.4994H131.369ZM139.455 55.1792C138.364 55.1792 137.394 54.9925 136.542 54.6192C135.691 54.2458 135.019 53.738 134.526 53.0958C134.033 52.4387 133.757 51.7068 133.697 50.9004H137.483C137.528 51.3335 137.73 51.6844 138.088 51.9533C138.447 52.2221 138.887 52.3565 139.41 52.3565C139.888 52.3565 140.254 52.2669 140.508 52.0877C140.776 51.8935 140.911 51.6471 140.911 51.3484C140.911 50.99 140.724 50.7286 140.351 50.5643C139.977 50.3851 139.373 50.1909 138.536 49.9819C137.64 49.7728 136.893 49.5562 136.296 49.3322C135.699 49.0932 135.183 48.7273 134.75 48.2345C134.317 47.7267 134.1 47.0471 134.1 46.1958C134.1 45.479 134.295 44.8293 134.683 44.2468C135.086 43.6494 135.669 43.179 136.43 42.8355C137.207 42.492 138.125 42.3202 139.186 42.3202C140.754 42.3202 141.986 42.7085 142.882 43.4851C143.793 44.2618 144.316 45.2923 144.45 46.5767H140.911C140.851 46.1436 140.657 45.8001 140.328 45.5462C140.015 45.2923 139.597 45.1653 139.074 45.1653C138.626 45.1653 138.282 45.2549 138.043 45.4342C137.804 45.5984 137.685 45.8299 137.685 46.1286C137.685 46.4871 137.872 46.7559 138.245 46.9351C138.633 47.1143 139.231 47.2936 140.037 47.4728C140.963 47.7117 141.717 47.9507 142.3 48.1897C142.882 48.4137 143.39 48.7871 143.823 49.3098C144.271 49.8176 144.503 50.5046 144.518 51.3708C144.518 52.1026 144.309 52.7598 143.89 53.3422C143.487 53.9097 142.897 54.3578 142.121 54.6864C141.359 55.0149 140.47 55.1792 139.455 55.1792ZM154.052 51.7516V55H152.103C150.714 55 149.632 54.664 148.855 53.9919C148.078 53.3049 147.69 52.1922 147.69 50.6539V45.6806H146.167V42.4994H147.69V39.4527H151.521V42.4994H154.03V45.6806H151.521V50.6987C151.521 51.0721 151.611 51.3409 151.79 51.5052C151.969 51.6695 152.268 51.7516 152.686 51.7516H154.052ZM158.337 41.2001C157.665 41.2001 157.112 41.0059 156.679 40.6176C156.261 40.2144 156.052 39.7215 156.052 39.1391C156.052 38.5417 156.261 38.0488 156.679 37.6605C157.112 37.2573 157.665 37.0556 158.337 37.0556C158.994 37.0556 159.532 37.2573 159.95 37.6605C160.383 38.0488 160.6 38.5417 160.6 39.1391C160.6 39.7215 160.383 40.2144 159.95 40.6176C159.532 41.0059 158.994 41.2001 158.337 41.2001ZM160.241 42.4994V55H156.41V42.4994H160.241ZM162.48 48.7497C162.48 47.4504 162.741 46.3153 163.264 45.3445C163.801 44.3738 164.541 43.627 165.482 43.1043C166.437 42.5816 167.528 42.3202 168.752 42.3202C170.32 42.3202 171.627 42.7309 172.673 43.5524C173.733 44.3738 174.428 45.5312 174.756 47.0247H170.679C170.335 46.0689 169.671 45.591 168.685 45.591C167.983 45.591 167.423 45.8673 167.005 46.4199C166.587 46.9575 166.378 47.7341 166.378 48.7497C166.378 49.7653 166.587 50.5494 167.005 51.102C167.423 51.6396 167.983 51.9085 168.685 51.9085C169.671 51.9085 170.335 51.4305 170.679 50.4747H174.756C174.428 51.9383 173.733 53.0883 172.673 53.9247C171.612 54.761 170.306 55.1792 168.752 55.1792C167.528 55.1792 166.437 54.9179 165.482 54.3951C164.541 53.8724 163.801 53.1257 163.264 52.1549C162.741 51.1841 162.48 50.0491 162.48 48.7497ZM182.115 55.1792C181.024 55.1792 180.054 54.9925 179.202 54.6192C178.351 54.2458 177.679 53.738 177.186 53.0958C176.693 52.4387 176.417 51.7068 176.357 50.9004H180.143C180.188 51.3335 180.39 51.6844 180.748 51.9533C181.107 52.2221 181.547 52.3565 182.07 52.3565C182.548 52.3565 182.914 52.2669 183.168 52.0877C183.436 51.8935 183.571 51.6471 183.571 51.3484C183.571 50.99 183.384 50.7286 183.011 50.5643C182.637 50.3851 182.033 50.1909 181.196 49.9819C180.3 49.7728 179.553 49.5562 178.956 49.3322C178.359 49.0932 177.843 48.7273 177.41 48.2345C176.977 47.7267 176.76 47.0471 176.76 46.1958C176.76 45.479 176.955 44.8293 177.343 44.2468C177.746 43.6494 178.329 43.179 179.09 42.8355C179.867 42.492 180.785 42.3202 181.846 42.3202C183.414 42.3202 184.646 42.7085 185.542 43.4851C186.453 44.2618 186.976 45.2923 187.11 46.5767H183.571C183.511 46.1436 183.317 45.8001 182.988 45.5462C182.675 45.2923 182.257 45.1653 181.734 45.1653C181.286 45.1653 180.942 45.2549 180.703 45.4342C180.464 45.5984 180.345 45.8299 180.345 46.1286C180.345 46.4871 180.532 46.7559 180.905 46.9351C181.293 47.1143 181.891 47.2936 182.697 47.4728C183.623 47.7117 184.377 47.9507 184.96 48.1897C185.542 48.4137 186.05 48.7871 186.483 49.3098C186.931 49.8176 187.163 50.5046 187.178 51.3708C187.178 52.1026 186.969 52.7598 186.55 53.3422C186.147 53.9097 185.557 54.3578 184.781 54.6864C184.019 55.0149 183.13 55.1792 182.115 55.1792Z" fill="black"/>
<path d="M30.387 100.645V98.3658H34.3577V108.83H31.8062V100.645H30.387ZM36.1779 103.455C36.1779 101.811 36.4932 100.516 37.124 99.5699C37.7642 98.6238 38.7915 98.1508 40.2059 98.1508C41.6202 98.1508 42.6428 98.6238 43.2735 99.5699C43.9138 100.516 44.2339 101.811 44.2339 103.455C44.2339 105.117 43.9138 106.422 43.2735 107.368C42.6428 108.314 41.6202 108.787 40.2059 108.787C38.7915 108.787 37.7642 108.314 37.124 107.368C36.4932 106.422 36.1779 105.117 36.1779 103.455ZM41.8257 103.455C41.8257 102.489 41.7206 101.749 41.5103 101.233C41.3001 100.707 40.8653 100.444 40.2059 100.444C39.5465 100.444 39.1117 100.707 38.9014 101.233C38.6912 101.749 38.5861 102.489 38.5861 103.455C38.5861 104.104 38.6243 104.644 38.7008 105.074C38.7772 105.495 38.9301 105.839 39.1595 106.107C39.3984 106.365 39.7472 106.494 40.2059 106.494C40.6646 106.494 41.0086 106.365 41.238 106.107C41.4769 105.839 41.6346 105.495 41.711 105.074C41.7875 104.644 41.8257 104.104 41.8257 103.455ZM45.6723 103.455C45.6723 101.811 45.9877 100.516 46.6184 99.5699C47.2587 98.6238 48.286 98.1508 49.7003 98.1508C51.1147 98.1508 52.1372 98.6238 52.7679 99.5699C53.4082 100.516 53.7283 101.811 53.7283 103.455C53.7283 105.117 53.4082 106.422 52.7679 107.368C52.1372 108.314 51.1147 108.787 49.7003 108.787C48.286 108.787 47.2587 108.314 46.6184 107.368C45.9877 106.422 45.6723 105.117 45.6723 103.455ZM51.3201 103.455C51.3201 102.489 51.215 101.749 51.0048 101.233C50.7945 100.707 50.3597 100.444 49.7003 100.444C49.0409 100.444 48.6061 100.707 48.3959 101.233C48.1856 101.749 48.0805 102.489 48.0805 103.455C48.0805 104.104 48.1187 104.644 48.1952 105.074C48.2716 105.495 48.4245 105.839 48.6539 106.107C48.8928 106.365 49.2416 106.494 49.7003 106.494C50.159 106.494 50.5031 106.365 50.7324 106.107C50.9713 105.839 51.129 105.495 51.2055 105.074C51.2819 104.644 51.3201 104.104 51.3201 103.455Z" fill="#186F65"/>
<line x1="86.5973" y1="101.403" x2="1062.4" y2="101.403" stroke="#E0E0E0" stroke-width="1.19455" stroke-linecap="round" stroke-dasharray="3.58 3.58"/>
<path d="M32.3652 153.382C31.4669 152.904 31.0178 152.154 31.0178 151.131C31.0178 150.615 31.1515 150.147 31.4191 149.726C31.6867 149.296 32.0929 148.957 32.6376 148.708C33.1823 148.45 33.8512 148.321 34.6444 148.321C35.4376 148.321 36.1018 148.45 36.6369 148.708C37.1816 148.957 37.5878 149.296 37.8554 149.726C38.1229 150.147 38.2567 150.615 38.2567 151.131C38.2567 151.647 38.1325 152.096 37.884 152.478C37.6451 152.861 37.3202 153.162 36.9093 153.382C37.4253 153.63 37.8219 153.974 38.099 154.414C38.3762 154.844 38.5148 155.35 38.5148 155.933C38.5148 156.612 38.3427 157.199 37.9987 157.696C37.6547 158.184 37.1864 158.556 36.5939 158.814C36.011 159.072 35.3611 159.201 34.6444 159.201C33.9277 159.201 33.2731 159.072 32.6806 158.814C32.0976 158.556 31.6341 158.184 31.2901 157.696C30.9461 157.199 30.7741 156.612 30.7741 155.933C30.7741 155.341 30.9126 154.829 31.1898 154.399C31.4669 153.96 31.8587 153.62 32.3652 153.382ZM35.8772 151.504C35.8772 151.112 35.7625 150.811 35.5332 150.601C35.3134 150.381 35.0171 150.271 34.6444 150.271C34.2717 150.271 33.9707 150.381 33.7413 150.601C33.5215 150.82 33.4116 151.126 33.4116 151.518C33.4116 151.891 33.5263 152.187 33.7557 152.407C33.985 152.617 34.2813 152.722 34.6444 152.722C35.0076 152.722 35.3038 152.612 35.5332 152.392C35.7625 152.173 35.8772 151.876 35.8772 151.504ZM34.6444 154.442C34.1953 154.442 33.8321 154.567 33.555 154.815C33.2778 155.054 33.1393 155.388 33.1393 155.818C33.1393 156.22 33.2731 156.55 33.5406 156.808C33.8178 157.066 34.1857 157.195 34.6444 157.195C35.1031 157.195 35.4615 157.066 35.7195 156.808C35.9871 156.55 36.1209 156.22 36.1209 155.818C36.1209 155.398 35.9823 155.063 35.7052 154.815C35.4376 154.567 35.084 154.442 34.6444 154.442ZM40.0835 153.625C40.0835 151.982 40.3989 150.687 41.0296 149.741C41.6699 148.794 42.6972 148.321 44.1115 148.321C45.5259 148.321 46.5484 148.794 47.1791 149.741C47.8194 150.687 48.1395 151.982 48.1395 153.625C48.1395 155.288 47.8194 156.593 47.1791 157.539C46.5484 158.485 45.5259 158.958 44.1115 158.958C42.6972 158.958 41.6699 158.485 41.0296 157.539C40.3989 156.593 40.0835 155.288 40.0835 153.625ZM45.7313 153.625C45.7313 152.66 45.6262 151.919 45.416 151.403C45.2057 150.878 44.7709 150.615 44.1115 150.615C43.4521 150.615 43.0173 150.878 42.8071 151.403C42.5968 151.919 42.4917 152.66 42.4917 153.625C42.4917 154.275 42.5299 154.815 42.6064 155.245C42.6828 155.666 42.8357 156.01 43.0651 156.277C43.304 156.535 43.6528 156.664 44.1115 156.664C44.5702 156.664 44.9143 156.535 45.1436 156.277C45.3825 156.01 45.5402 155.666 45.6166 155.245C45.6931 154.815 45.7313 154.275 45.7313 153.625Z" fill="#186F65"/>
<line x1="86.5973" y1="152.402" x2="1062.4" y2="152.402" stroke="#E0E0E0" stroke-width="1.19455" stroke-linecap="round" stroke-dasharray="3.58 3.58"/>
<path d="M35.8198 201.531C35.7434 201.178 35.6096 200.915 35.4185 200.743C35.2273 200.561 34.955 200.471 34.6014 200.471C34.0567 200.471 33.6649 200.709 33.426 201.187C33.1871 201.656 33.0628 202.401 33.0533 203.423C33.2635 203.089 33.5645 202.826 33.9563 202.635C34.3577 202.444 34.7973 202.348 35.2751 202.348C36.2117 202.348 36.9618 202.645 37.5257 203.237C38.099 203.83 38.3857 204.656 38.3857 205.717C38.3857 206.415 38.2424 207.026 37.9557 207.552C37.6786 208.077 37.2676 208.488 36.7229 208.785C36.1878 209.081 35.5523 209.229 34.8164 209.229C33.3447 209.229 32.3222 208.77 31.7488 207.853C31.1754 206.926 30.8887 205.598 30.8887 203.868C30.8887 202.052 31.1898 200.705 31.7918 199.825C32.4034 198.937 33.3782 198.492 34.7161 198.492C35.4328 198.492 36.0349 198.636 36.5222 198.922C37.0192 199.2 37.3919 199.567 37.6403 200.026C37.8984 200.485 38.0513 200.987 38.099 201.531H35.8198ZM34.6874 204.284C34.2765 204.284 33.9325 204.408 33.6553 204.656C33.3877 204.895 33.254 205.239 33.254 205.688C33.254 206.147 33.3782 206.505 33.6267 206.763C33.8847 207.021 34.2478 207.15 34.7161 207.15C35.1366 207.15 35.4663 207.026 35.7052 206.778C35.9536 206.52 36.0779 206.171 36.0779 205.731C36.0779 205.282 35.9584 204.929 35.7195 204.671C35.4806 204.413 35.1366 204.284 34.6874 204.284ZM39.9155 203.796C39.9155 202.152 40.2309 200.858 40.8616 199.911C41.5019 198.965 42.5292 198.492 43.9435 198.492C45.3579 198.492 46.3804 198.965 47.0111 199.911C47.6514 200.858 47.9716 202.152 47.9716 203.796C47.9716 205.459 47.6514 206.763 47.0111 207.71C46.3804 208.656 45.3579 209.129 43.9435 209.129C42.5292 209.129 41.5019 208.656 40.8616 207.71C40.2309 206.763 39.9155 205.459 39.9155 203.796ZM45.5633 203.796C45.5633 202.831 45.4582 202.09 45.248 201.574C45.0377 201.049 44.6029 200.786 43.9435 200.786C43.2841 200.786 42.8493 201.049 42.6391 201.574C42.4288 202.09 42.3237 202.831 42.3237 203.796C42.3237 204.446 42.3619 204.986 42.4384 205.416C42.5148 205.836 42.6678 206.18 42.8971 206.448C43.136 206.706 43.4848 206.835 43.9435 206.835C44.4022 206.835 44.7463 206.706 44.9756 206.448C45.2145 206.18 45.3722 205.836 45.4487 205.416C45.5251 204.986 45.5633 204.446 45.5633 203.796Z" fill="#186F65"/>
<line x1="86.5973" y1="202.402" x2="1062.4" y2="202.402" stroke="#E0E0E0" stroke-width="1.19455" stroke-linecap="round" stroke-dasharray="3.58 3.58"/>
<path d="M30.7024 257.479V255.5L35.2321 249.021H37.97V255.357H39.1455V257.479H37.97V259.342H35.5188V257.479H30.7024ZM35.6908 251.716L33.2826 255.357H35.6908V251.716ZM40.4895 253.967C40.4895 252.323 40.8048 251.028 41.4355 250.082C42.0758 249.136 43.1031 248.663 44.5175 248.663C45.9318 248.663 46.9544 249.136 47.5851 250.082C48.2254 251.028 48.5455 252.323 48.5455 253.967C48.5455 255.629 48.2254 256.934 47.5851 257.88C46.9544 258.826 45.9318 259.299 44.5175 259.299C43.1031 259.299 42.0758 258.826 41.4355 257.88C40.8048 256.934 40.4895 255.629 40.4895 253.967ZM46.1373 253.967C46.1373 253.001 46.0322 252.261 45.8219 251.745C45.6117 251.219 45.1769 250.956 44.5175 250.956C43.8581 250.956 43.4233 251.219 43.213 251.745C43.0028 252.261 42.8977 253.001 42.8977 253.967C42.8977 254.616 42.9359 255.156 43.0123 255.586C43.0888 256.007 43.2417 256.351 43.471 256.618C43.71 256.876 44.0588 257.006 44.5175 257.006C44.9762 257.006 45.3202 256.876 45.5496 256.618C45.7885 256.351 45.9462 256.007 46.0226 255.586C46.0991 255.156 46.1373 254.616 46.1373 253.967Z" fill="#186F65"/>
<line x1="86.5973" y1="252.403" x2="1062.4" y2="252.403" stroke="#E0E0E0" stroke-width="1.19455" stroke-linecap="round" stroke-dasharray="3.58 3.58"/>
<path d="M30.559 307.549C30.884 307.291 31.0321 307.172 31.0034 307.191C31.9399 306.417 32.6758 305.781 33.2109 305.284C33.7557 304.788 34.2144 304.267 34.5871 303.722C34.9598 303.177 35.1461 302.647 35.1461 302.131C35.1461 301.739 35.0553 301.433 34.8738 301.213C34.6922 300.994 34.4198 300.884 34.0567 300.884C33.6935 300.884 33.4069 301.022 33.1966 301.299C32.9959 301.567 32.8956 301.949 32.8956 302.446H30.5304C30.5495 301.634 30.7215 300.955 31.0464 300.411C31.3809 299.866 31.8157 299.465 32.3509 299.207C32.8956 298.949 33.4976 298.82 34.157 298.82C35.2942 298.82 36.1495 299.111 36.7229 299.694C37.3059 300.277 37.5973 301.037 37.5973 301.973C37.5973 302.996 37.2485 303.947 36.5509 304.826C35.8533 305.695 34.9645 306.546 33.8847 307.377H37.755V309.37H30.559V307.549ZM38.9776 304.138C38.9776 302.494 39.293 301.199 39.9237 300.253C40.564 299.307 41.5913 298.834 43.0056 298.834C44.42 298.834 45.4425 299.307 46.0732 300.253C46.7135 301.199 47.0336 302.494 47.0336 304.138C47.0336 305.801 46.7135 307.105 46.0732 308.051C45.4425 308.997 44.42 309.47 43.0056 309.47C41.5913 309.47 40.564 308.997 39.9237 308.051C39.293 307.105 38.9776 305.801 38.9776 304.138ZM44.6254 304.138C44.6254 303.173 44.5203 302.432 44.3101 301.916C44.0998 301.39 43.665 301.127 43.0056 301.127C42.3462 301.127 41.9114 301.39 41.7012 301.916C41.4909 302.432 41.3858 303.173 41.3858 304.138C41.3858 304.788 41.424 305.327 41.5005 305.758C41.5769 306.178 41.7298 306.522 41.9592 306.79C42.1981 307.048 42.5469 307.177 43.0056 307.177C43.4643 307.177 43.8084 307.048 44.0377 306.79C44.2766 306.522 44.4343 306.178 44.5108 305.758C44.5872 305.327 44.6254 304.788 44.6254 304.138Z" fill="#186F65"/>
<line x1="86.5973" y1="302.403" x2="1062.4" y2="302.403" stroke="#E0E0E0" stroke-width="1.19455" stroke-linecap="round" stroke-dasharray="3.58 3.58"/>
<path d="M107.108 320.965V327.478C107.108 328.284 106.861 328.921 106.367 329.389C105.882 329.857 105.24 330.091 104.443 330.091C103.646 330.091 103 329.857 102.506 329.389C102.021 328.921 101.778 328.284 101.778 327.478H103.273C103.282 327.877 103.381 328.193 103.572 328.427C103.771 328.661 104.062 328.778 104.443 328.778C104.824 328.778 105.115 328.661 105.314 328.427C105.513 328.184 105.613 327.868 105.613 327.478V320.965H107.108ZM108.895 326.386C108.895 325.667 109.042 325.03 109.337 324.475C109.64 323.92 110.048 323.491 110.559 323.188C111.079 322.876 111.651 322.72 112.275 322.72C112.838 322.72 113.328 322.833 113.744 323.058C114.169 323.275 114.507 323.548 114.758 323.877V322.837H116.253V330H114.758V328.934C114.507 329.272 114.164 329.554 113.731 329.779C113.298 330.004 112.804 330.117 112.249 330.117C111.634 330.117 111.07 329.961 110.559 329.649C110.048 329.328 109.64 328.886 109.337 328.323C109.042 327.751 108.895 327.105 108.895 326.386ZM114.758 326.412C114.758 325.918 114.654 325.489 114.446 325.125C114.247 324.761 113.982 324.484 113.653 324.293C113.324 324.102 112.968 324.007 112.587 324.007C112.206 324.007 111.85 324.102 111.521 324.293C111.192 324.475 110.923 324.748 110.715 325.112C110.516 325.467 110.416 325.892 110.416 326.386C110.416 326.88 110.516 327.313 110.715 327.686C110.923 328.059 111.192 328.345 111.521 328.544C111.859 328.735 112.214 328.83 112.587 328.83C112.968 328.83 113.324 328.735 113.653 328.544C113.982 328.353 114.247 328.076 114.446 327.712C114.654 327.339 114.758 326.906 114.758 326.412ZM121.683 322.72C122.247 322.72 122.749 322.837 123.191 323.071C123.642 323.305 123.993 323.652 124.244 324.111C124.496 324.57 124.621 325.125 124.621 325.775V330H123.152V325.996C123.152 325.355 122.992 324.865 122.671 324.527C122.351 324.18 121.913 324.007 121.358 324.007C120.804 324.007 120.362 324.18 120.032 324.527C119.712 324.865 119.551 325.355 119.551 325.996V330H118.069V322.837H119.551V323.656C119.794 323.361 120.102 323.132 120.474 322.967C120.856 322.802 121.259 322.72 121.683 322.72Z" fill="#186F65"/>
<path d="M192.031 320.965V322.174H188.196V324.839H191.186V326.048H188.196V330H186.714V320.965H192.031ZM199.84 326.243C199.84 326.512 199.822 326.754 199.788 326.971H194.315C194.358 327.543 194.57 328.002 194.952 328.349C195.333 328.696 195.801 328.869 196.356 328.869C197.153 328.869 197.716 328.535 198.046 327.868H199.645C199.428 328.527 199.034 329.068 198.462 329.493C197.898 329.909 197.196 330.117 196.356 330.117C195.671 330.117 195.056 329.965 194.51 329.662C193.972 329.35 193.548 328.917 193.236 328.362C192.932 327.799 192.781 327.149 192.781 326.412C192.781 325.675 192.928 325.03 193.223 324.475C193.526 323.912 193.946 323.478 194.484 323.175C195.03 322.872 195.654 322.72 196.356 322.72C197.032 322.72 197.634 322.867 198.163 323.162C198.691 323.457 199.103 323.873 199.398 324.41C199.692 324.939 199.84 325.55 199.84 326.243ZM198.293 325.775C198.284 325.229 198.089 324.791 197.708 324.462C197.326 324.133 196.854 323.968 196.291 323.968C195.779 323.968 195.342 324.133 194.978 324.462C194.614 324.783 194.397 325.22 194.328 325.775H198.293ZM202.65 323.903C202.901 323.556 203.244 323.275 203.677 323.058C204.119 322.833 204.609 322.72 205.146 322.72C205.779 322.72 206.351 322.872 206.862 323.175C207.373 323.478 207.776 323.912 208.071 324.475C208.366 325.03 208.513 325.667 208.513 326.386C208.513 327.105 208.366 327.751 208.071 328.323C207.776 328.886 207.369 329.328 206.849 329.649C206.338 329.961 205.77 330.117 205.146 330.117C204.591 330.117 204.097 330.009 203.664 329.792C203.239 329.575 202.901 329.298 202.65 328.96V330H201.168V320.38H202.65V323.903ZM207.005 326.386C207.005 325.892 206.901 325.467 206.693 325.112C206.494 324.748 206.225 324.475 205.887 324.293C205.558 324.102 205.202 324.007 204.821 324.007C204.448 324.007 204.093 324.102 203.755 324.293C203.426 324.484 203.157 324.761 202.949 325.125C202.75 325.489 202.65 325.918 202.65 326.412C202.65 326.906 202.75 327.339 202.949 327.712C203.157 328.076 203.426 328.353 203.755 328.544C204.093 328.735 204.448 328.83 204.821 328.83C205.202 328.83 205.558 328.735 205.887 328.544C206.225 328.345 206.494 328.059 206.693 327.686C206.901 327.313 207.005 326.88 207.005 326.386Z" fill="#186F65"/>
<path d="M280.102 320.965V330H278.62V323.812L275.864 330H274.837L272.068 323.812V330H270.586V320.965H272.185L275.357 328.05L278.516 320.965H280.102ZM281.426 326.386C281.426 325.667 281.574 325.03 281.868 324.475C282.172 323.92 282.579 323.491 283.09 323.188C283.61 322.876 284.182 322.72 284.806 322.72C285.37 322.72 285.859 322.833 286.275 323.058C286.7 323.275 287.038 323.548 287.289 323.877V322.837H288.784V330H287.289V328.934C287.038 329.272 286.696 329.554 286.262 329.779C285.829 330.004 285.335 330.117 284.78 330.117C284.165 330.117 283.602 329.961 283.09 329.649C282.579 329.328 282.172 328.886 281.868 328.323C281.574 327.751 281.426 327.105 281.426 326.386ZM287.289 326.412C287.289 325.918 287.185 325.489 286.977 325.125C286.778 324.761 286.514 324.484 286.184 324.293C285.855 324.102 285.5 324.007 285.118 324.007C284.737 324.007 284.382 324.102 284.052 324.293C283.723 324.475 283.454 324.748 283.246 325.112C283.047 325.467 282.947 325.892 282.947 326.386C282.947 326.88 283.047 327.313 283.246 327.686C283.454 328.059 283.723 328.345 284.052 328.544C284.39 328.735 284.746 328.83 285.118 328.83C285.5 328.83 285.855 328.735 286.184 328.544C286.514 328.353 286.778 328.076 286.977 327.712C287.185 327.339 287.289 326.906 287.289 326.412ZM292.083 323.877C292.299 323.513 292.585 323.231 292.941 323.032C293.305 322.824 293.734 322.72 294.228 322.72V324.254H293.851C293.27 324.254 292.828 324.401 292.525 324.696C292.23 324.991 292.083 325.502 292.083 326.23V330H290.601V322.837H292.083V323.877Z" fill="#186F65"/>
<path d="M361.027 328.154H357.244L356.594 330H355.047L358.284 320.952H360L363.237 330H361.677L361.027 328.154ZM360.611 326.945L359.142 322.746L357.66 326.945H360.611ZM365.996 323.89C366.248 323.561 366.59 323.283 367.023 323.058C367.457 322.833 367.946 322.72 368.492 322.72C369.116 322.72 369.684 322.876 370.195 323.188C370.715 323.491 371.123 323.92 371.417 324.475C371.712 325.03 371.859 325.667 371.859 326.386C371.859 327.105 371.712 327.751 371.417 328.323C371.123 328.886 370.715 329.328 370.195 329.649C369.684 329.961 369.116 330.117 368.492 330.117C367.946 330.117 367.461 330.009 367.036 329.792C366.612 329.567 366.265 329.289 365.996 328.96V333.406H364.514V322.837H365.996V323.89ZM370.351 326.386C370.351 325.892 370.247 325.467 370.039 325.112C369.84 324.748 369.571 324.475 369.233 324.293C368.904 324.102 368.549 324.007 368.167 324.007C367.795 324.007 367.439 324.102 367.101 324.293C366.772 324.484 366.503 324.761 366.295 325.125C366.096 325.489 365.996 325.918 365.996 326.412C365.996 326.906 366.096 327.339 366.295 327.712C366.503 328.076 366.772 328.353 367.101 328.544C367.439 328.735 367.795 328.83 368.167 328.83C368.549 328.83 368.904 328.735 369.233 328.544C369.571 328.345 369.84 328.059 370.039 327.686C370.247 327.313 370.351 326.88 370.351 326.386ZM374.677 323.877C374.893 323.513 375.179 323.231 375.535 323.032C375.899 322.824 376.328 322.72 376.822 322.72V324.254H376.445C375.864 324.254 375.422 324.401 375.119 324.696C374.824 324.991 374.677 325.502 374.677 326.23V330H373.195V322.837H374.677V323.877Z" fill="#186F65"/>
<path d="M445.51 320.965V330H444.028V323.812L441.272 330H440.245L437.476 323.812V330H435.994V320.965H437.593L440.765 328.05L443.924 320.965H445.51ZM446.834 326.386C446.834 325.667 446.981 325.03 447.276 324.475C447.579 323.92 447.986 323.491 448.498 323.188C449.018 322.876 449.59 322.72 450.214 322.72C450.777 322.72 451.267 322.833 451.683 323.058C452.107 323.275 452.445 323.548 452.697 323.877V322.837H454.192V330H452.697V328.934C452.445 329.272 452.103 329.554 451.67 329.779C451.236 330.004 450.742 330.117 450.188 330.117C449.572 330.117 449.009 329.961 448.498 329.649C447.986 329.328 447.579 328.886 447.276 328.323C446.981 327.751 446.834 327.105 446.834 326.386ZM452.697 326.412C452.697 325.918 452.593 325.489 452.385 325.125C452.185 324.761 451.921 324.484 451.592 324.293C451.262 324.102 450.907 324.007 450.526 324.007C450.144 324.007 449.789 324.102 449.46 324.293C449.13 324.475 448.862 324.748 448.654 325.112C448.454 325.467 448.355 325.892 448.355 326.386C448.355 326.88 448.454 327.313 448.654 327.686C448.862 328.059 449.13 328.345 449.46 328.544C449.798 328.735 450.153 328.83 450.526 328.83C450.907 328.83 451.262 328.735 451.592 328.544C451.921 328.353 452.185 328.076 452.385 327.712C452.593 327.339 452.697 326.906 452.697 326.412ZM462.456 322.837L458.062 333.367H456.528L457.984 329.883L455.163 322.837H456.814L458.829 328.297L460.922 322.837H462.456Z" fill="#186F65"/>
<path d="M526.524 320.965V327.478C526.524 328.284 526.277 328.921 525.783 329.389C525.297 329.857 524.656 330.091 523.859 330.091C523.061 330.091 522.416 329.857 521.922 329.389C521.436 328.921 521.194 328.284 521.194 327.478H522.689C522.697 327.877 522.797 328.193 522.988 328.427C523.187 328.661 523.477 328.778 523.859 328.778C524.24 328.778 524.53 328.661 524.73 328.427C524.929 328.184 525.029 327.868 525.029 327.478V320.965H526.524ZM535.292 322.837V330H533.81V329.155C533.576 329.45 533.268 329.684 532.887 329.857C532.514 330.022 532.115 330.104 531.691 330.104C531.127 330.104 530.62 329.987 530.17 329.753C529.728 329.519 529.377 329.172 529.117 328.713C528.865 328.254 528.74 327.699 528.74 327.049V322.837H530.209V326.828C530.209 327.469 530.369 327.963 530.69 328.31C531.01 328.648 531.448 328.817 532.003 328.817C532.557 328.817 532.995 328.648 533.316 328.31C533.645 327.963 533.81 327.469 533.81 326.828V322.837H535.292ZM540.731 322.72C541.294 322.72 541.797 322.837 542.239 323.071C542.69 323.305 543.041 323.652 543.292 324.111C543.543 324.57 543.669 325.125 543.669 325.775V330H542.2V325.996C542.2 325.355 542.04 324.865 541.719 324.527C541.398 324.18 540.961 324.007 540.406 324.007C539.851 324.007 539.409 324.18 539.08 324.527C538.759 324.865 538.599 325.355 538.599 325.996V330H537.117V322.837H538.599V323.656C538.842 323.361 539.149 323.132 539.522 322.967C539.903 322.802 540.306 322.72 540.731 322.72Z" fill="#186F65"/>
<path d="M613.716 320.965V327.478C613.716 328.284 613.469 328.921 612.975 329.389C612.49 329.857 611.849 330.091 611.051 330.091C610.254 330.091 609.608 329.857 609.114 329.389C608.629 328.921 608.386 328.284 608.386 327.478H609.881C609.89 327.877 609.99 328.193 610.18 328.427C610.38 328.661 610.67 328.778 611.051 328.778C611.433 328.778 611.723 328.661 611.922 328.427C612.122 328.184 612.221 327.868 612.221 327.478V320.965H613.716ZM622.484 322.837V330H621.002V329.155C620.768 329.45 620.461 329.684 620.079 329.857C619.707 330.022 619.308 330.104 618.883 330.104C618.32 330.104 617.813 329.987 617.362 329.753C616.92 329.519 616.569 329.172 616.309 328.713C616.058 328.254 615.932 327.699 615.932 327.049V322.837H617.401V326.828C617.401 327.469 617.562 327.963 617.882 328.31C618.203 328.648 618.641 328.817 619.195 328.817C619.75 328.817 620.188 328.648 620.508 328.31C620.838 327.963 621.002 327.469 621.002 326.828V322.837H622.484ZM625.792 320.38V330H624.31V320.38H625.792Z" fill="#186F65"/>
<path d="M693.426 328.271H689.812L689.214 330H687.303L690.566 320.913H692.685L695.948 330H694.024L693.426 328.271ZM692.932 326.815L691.619 323.019L690.306 326.815H692.932ZM703.837 322.798V330H702.004V329.09C701.77 329.402 701.462 329.649 701.081 329.831C700.708 330.004 700.301 330.091 699.859 330.091C699.296 330.091 698.797 329.974 698.364 329.74C697.931 329.497 697.588 329.146 697.337 328.687C697.094 328.219 696.973 327.664 696.973 327.023V322.798H698.793V326.763C698.793 327.335 698.936 327.777 699.222 328.089C699.508 328.392 699.898 328.544 700.392 328.544C700.895 328.544 701.289 328.392 701.575 328.089C701.861 327.777 702.004 327.335 702.004 326.763V322.798H703.837ZM708.324 322.681C708.861 322.681 709.333 322.789 709.741 323.006C710.148 323.214 710.469 323.487 710.703 323.825V322.798H712.536V330.052C712.536 330.719 712.401 331.313 712.133 331.833C711.864 332.362 711.461 332.778 710.924 333.081C710.386 333.393 709.736 333.549 708.974 333.549C707.951 333.549 707.11 333.311 706.452 332.834C705.802 332.357 705.433 331.707 705.347 330.884H707.154C707.249 331.213 707.453 331.473 707.765 331.664C708.085 331.863 708.471 331.963 708.922 331.963C709.45 331.963 709.879 331.803 710.209 331.482C710.538 331.17 710.703 330.693 710.703 330.052V328.934C710.469 329.272 710.144 329.554 709.728 329.779C709.32 330.004 708.852 330.117 708.324 330.117C707.717 330.117 707.162 329.961 706.66 329.649C706.157 329.337 705.758 328.899 705.464 328.336C705.178 327.764 705.035 327.11 705.035 326.373C705.035 325.645 705.178 324.999 705.464 324.436C705.758 323.873 706.153 323.439 706.647 323.136C707.149 322.833 707.708 322.681 708.324 322.681ZM710.703 326.399C710.703 325.957 710.616 325.58 710.443 325.268C710.269 324.947 710.035 324.705 709.741 324.54C709.446 324.367 709.13 324.28 708.792 324.28C708.454 324.28 708.142 324.362 707.856 324.527C707.57 324.692 707.336 324.934 707.154 325.255C706.98 325.567 706.894 325.94 706.894 326.373C706.894 326.806 706.98 327.188 707.154 327.517C707.336 327.838 707.57 328.085 707.856 328.258C708.15 328.431 708.462 328.518 708.792 328.518C709.13 328.518 709.446 328.436 709.741 328.271C710.035 328.098 710.269 327.855 710.443 327.543C710.616 327.222 710.703 326.841 710.703 326.399Z" fill="#1F1515"/>
<path d="M776.618 330.091C776.011 330.091 775.465 329.987 774.98 329.779C774.495 329.562 774.113 329.259 773.836 328.869C773.559 328.479 773.42 328.024 773.42 327.504H775.006C775.041 327.894 775.192 328.215 775.461 328.466C775.738 328.717 776.124 328.843 776.618 328.843C777.129 328.843 777.528 328.722 777.814 328.479C778.1 328.228 778.243 327.907 778.243 327.517C778.243 327.214 778.152 326.967 777.97 326.776C777.797 326.585 777.576 326.438 777.307 326.334C777.047 326.23 776.683 326.117 776.215 325.996C775.626 325.84 775.145 325.684 774.772 325.528C774.408 325.363 774.096 325.112 773.836 324.774C773.576 324.436 773.446 323.985 773.446 323.422C773.446 322.902 773.576 322.447 773.836 322.057C774.096 321.667 774.46 321.368 774.928 321.16C775.396 320.952 775.938 320.848 776.553 320.848C777.428 320.848 778.143 321.069 778.698 321.511C779.261 321.944 779.573 322.542 779.634 323.305H777.996C777.97 322.976 777.814 322.694 777.528 322.46C777.242 322.226 776.865 322.109 776.397 322.109C775.972 322.109 775.626 322.217 775.357 322.434C775.088 322.651 774.954 322.963 774.954 323.37C774.954 323.647 775.036 323.877 775.201 324.059C775.374 324.232 775.591 324.371 775.851 324.475C776.111 324.579 776.466 324.692 776.917 324.813C777.515 324.978 778 325.142 778.373 325.307C778.754 325.472 779.075 325.727 779.335 326.074C779.604 326.412 779.738 326.867 779.738 327.439C779.738 327.898 779.612 328.332 779.361 328.739C779.118 329.146 778.759 329.476 778.282 329.727C777.814 329.97 777.259 330.091 776.618 330.091ZM787.922 326.243C787.922 326.512 787.904 326.754 787.87 326.971H782.397C782.44 327.543 782.652 328.002 783.034 328.349C783.415 328.696 783.883 328.869 784.438 328.869C785.235 328.869 785.798 328.535 786.128 327.868H787.727C787.51 328.527 787.116 329.068 786.544 329.493C785.98 329.909 785.278 330.117 784.438 330.117C783.753 330.117 783.138 329.965 782.592 329.662C782.054 329.35 781.63 328.917 781.318 328.362C781.014 327.799 780.863 327.149 780.863 326.412C780.863 325.675 781.01 325.03 781.305 324.475C781.608 323.912 782.028 323.478 782.566 323.175C783.112 322.872 783.736 322.72 784.438 322.72C785.114 322.72 785.716 322.867 786.245 323.162C786.773 323.457 787.185 323.873 787.48 324.41C787.774 324.939 787.922 325.55 787.922 326.243ZM786.375 325.775C786.366 325.229 786.171 324.791 785.79 324.462C785.408 324.133 784.936 323.968 784.373 323.968C783.861 323.968 783.424 324.133 783.06 324.462C782.696 324.783 782.479 325.22 782.41 325.775H786.375ZM790.732 323.89C790.984 323.561 791.326 323.283 791.759 323.058C792.193 322.833 792.682 322.72 793.228 322.72C793.852 322.72 794.42 322.876 794.931 323.188C795.451 323.491 795.859 323.92 796.153 324.475C796.448 325.03 796.595 325.667 796.595 326.386C796.595 327.105 796.448 327.751 796.153 328.323C795.859 328.886 795.451 329.328 794.931 329.649C794.42 329.961 793.852 330.117 793.228 330.117C792.682 330.117 792.197 330.009 791.772 329.792C791.348 329.567 791.001 329.289 790.732 328.96V333.406H789.25V322.837H790.732V323.89ZM795.087 326.386C795.087 325.892 794.983 325.467 794.775 325.112C794.576 324.748 794.307 324.475 793.969 324.293C793.64 324.102 793.285 324.007 792.903 324.007C792.531 324.007 792.175 324.102 791.837 324.293C791.508 324.484 791.239 324.761 791.031 325.125C790.832 325.489 790.732 325.918 790.732 326.412C790.732 326.906 790.832 327.339 791.031 327.712C791.239 328.076 791.508 328.353 791.837 328.544C792.175 328.735 792.531 328.83 792.903 328.83C793.285 328.83 793.64 328.735 793.969 328.544C794.307 328.345 794.576 328.059 794.775 327.686C794.983 327.313 795.087 326.88 795.087 326.386Z" fill="#186F65"/>
<path d="M862.483 330.091C861.642 330.091 860.866 329.896 860.156 329.506C859.454 329.107 858.895 328.557 858.479 327.855C858.071 327.144 857.868 326.347 857.868 325.463C857.868 324.579 858.071 323.786 858.479 323.084C858.895 322.382 859.454 321.836 860.156 321.446C860.866 321.047 861.642 320.848 862.483 320.848C863.332 320.848 864.108 321.047 864.81 321.446C865.52 321.836 866.079 322.382 866.487 323.084C866.894 323.786 867.098 324.579 867.098 325.463C867.098 326.347 866.894 327.144 866.487 327.855C866.079 328.557 865.52 329.107 864.81 329.506C864.108 329.896 863.332 330.091 862.483 330.091ZM862.483 328.804C863.081 328.804 863.614 328.67 864.082 328.401C864.55 328.124 864.914 327.734 865.174 327.231C865.442 326.72 865.577 326.13 865.577 325.463C865.577 324.796 865.442 324.211 865.174 323.708C864.914 323.205 864.55 322.82 864.082 322.551C863.614 322.282 863.081 322.148 862.483 322.148C861.885 322.148 861.352 322.282 860.884 322.551C860.416 322.82 860.047 323.205 859.779 323.708C859.519 324.211 859.389 324.796 859.389 325.463C859.389 326.13 859.519 326.72 859.779 327.231C860.047 327.734 860.416 328.124 860.884 328.401C861.352 328.67 861.885 328.804 862.483 328.804ZM867.932 326.412C867.932 325.675 868.079 325.03 868.374 324.475C868.677 323.912 869.093 323.478 869.622 323.175C870.151 322.872 870.757 322.72 871.442 322.72C872.309 322.72 873.024 322.928 873.587 323.344C874.159 323.751 874.545 324.336 874.744 325.099H873.145C873.015 324.744 872.807 324.466 872.521 324.267C872.235 324.068 871.875 323.968 871.442 323.968C870.835 323.968 870.35 324.185 869.986 324.618C869.631 325.043 869.453 325.641 869.453 326.412C869.453 327.183 869.631 327.786 869.986 328.219C870.35 328.652 870.835 328.869 871.442 328.869C872.3 328.869 872.868 328.492 873.145 327.738H874.744C874.536 328.466 874.146 329.047 873.574 329.48C873.002 329.905 872.291 330.117 871.442 330.117C870.757 330.117 870.151 329.965 869.622 329.662C869.093 329.35 868.677 328.917 868.374 328.362C868.079 327.799 867.932 327.149 867.932 326.412ZM877.82 324.046V328.011C877.82 328.28 877.881 328.475 878.002 328.596C878.132 328.709 878.349 328.765 878.652 328.765H879.562V330H878.392C877.725 330 877.213 329.844 876.858 329.532C876.503 329.22 876.325 328.713 876.325 328.011V324.046H875.48V322.837H876.325V321.056H877.82V322.837H879.562V324.046H877.82Z" fill="#186F65"/>
<path d="M948.417 330H946.935L942.476 323.253V330H940.994V320.952H942.476L946.935 327.686V320.952H948.417V330ZM953.34 330.117C952.664 330.117 952.053 329.965 951.507 329.662C950.961 329.35 950.532 328.917 950.22 328.362C949.908 327.799 949.752 327.149 949.752 326.412C949.752 325.684 949.912 325.038 950.233 324.475C950.554 323.912 950.991 323.478 951.546 323.175C952.101 322.872 952.72 322.72 953.405 322.72C954.09 322.72 954.709 322.872 955.264 323.175C955.819 323.478 956.256 323.912 956.577 324.475C956.898 325.038 957.058 325.684 957.058 326.412C957.058 327.14 956.893 327.786 956.564 328.349C956.235 328.912 955.784 329.35 955.212 329.662C954.649 329.965 954.025 330.117 953.34 330.117ZM953.34 328.83C953.721 328.83 954.077 328.739 954.406 328.557C954.744 328.375 955.017 328.102 955.225 327.738C955.433 327.374 955.537 326.932 955.537 326.412C955.537 325.892 955.437 325.454 955.238 325.099C955.039 324.735 954.774 324.462 954.445 324.28C954.116 324.098 953.76 324.007 953.379 324.007C952.998 324.007 952.642 324.098 952.313 324.28C951.992 324.462 951.737 324.735 951.546 325.099C951.355 325.454 951.26 325.892 951.26 326.412C951.26 327.183 951.455 327.781 951.845 328.206C952.244 328.622 952.742 328.83 953.34 328.83ZM961.162 328.674L963.19 322.837H964.763L962.033 330H960.265L957.548 322.837H959.134L961.162 328.674Z" fill="#186F65"/>
<path d="M1027.8 320.965C1028.76 320.965 1029.6 321.151 1030.32 321.524C1031.05 321.888 1031.6 322.417 1031.99 323.11C1032.39 323.795 1032.59 324.596 1032.59 325.515C1032.59 326.434 1032.39 327.231 1031.99 327.907C1031.6 328.583 1031.05 329.103 1030.32 329.467C1029.6 329.822 1028.76 330 1027.8 330H1024.84V320.965H1027.8ZM1027.8 328.791C1028.85 328.791 1029.66 328.505 1030.23 327.933C1030.79 327.361 1031.07 326.555 1031.07 325.515C1031.07 324.466 1030.79 323.647 1030.23 323.058C1029.66 322.469 1028.85 322.174 1027.8 322.174H1026.33V328.791H1027.8ZM1040.5 326.243C1040.5 326.512 1040.48 326.754 1040.44 326.971H1034.97C1035.01 327.543 1035.23 328.002 1035.61 328.349C1035.99 328.696 1036.46 328.869 1037.01 328.869C1037.81 328.869 1038.37 328.535 1038.7 327.868H1040.3C1040.08 328.527 1039.69 329.068 1039.12 329.493C1038.56 329.909 1037.85 330.117 1037.01 330.117C1036.33 330.117 1035.71 329.965 1035.17 329.662C1034.63 329.35 1034.2 328.917 1033.89 328.362C1033.59 327.799 1033.44 327.149 1033.44 326.412C1033.44 325.675 1033.58 325.03 1033.88 324.475C1034.18 323.912 1034.6 323.478 1035.14 323.175C1035.69 322.872 1036.31 322.72 1037.01 322.72C1037.69 322.72 1038.29 322.867 1038.82 323.162C1039.35 323.457 1039.76 323.873 1040.05 324.41C1040.35 324.939 1040.5 325.55 1040.5 326.243ZM1038.95 325.775C1038.94 325.229 1038.75 324.791 1038.36 324.462C1037.98 324.133 1037.51 323.968 1036.95 323.968C1036.44 323.968 1036 324.133 1035.63 324.462C1035.27 324.783 1035.05 325.22 1034.98 325.775H1038.95ZM1041.33 326.412C1041.33 325.675 1041.48 325.03 1041.77 324.475C1042.08 323.912 1042.49 323.478 1043.02 323.175C1043.55 322.872 1044.16 322.72 1044.84 322.72C1045.71 322.72 1046.42 322.928 1046.99 323.344C1047.56 323.751 1047.94 324.336 1048.14 325.099H1046.54C1046.41 324.744 1046.21 324.466 1045.92 324.267C1045.63 324.068 1045.27 323.968 1044.84 323.968C1044.23 323.968 1043.75 324.185 1043.38 324.618C1043.03 325.043 1042.85 325.641 1042.85 326.412C1042.85 327.183 1043.03 327.786 1043.38 328.219C1043.75 328.652 1044.23 328.869 1044.84 328.869C1045.7 328.869 1046.27 328.492 1046.54 327.738H1048.14C1047.93 328.466 1047.54 329.047 1046.97 329.48C1046.4 329.905 1045.69 330.117 1044.84 330.117C1044.16 330.117 1043.55 329.965 1043.02 329.662C1042.49 329.35 1042.08 328.917 1041.77 328.362C1041.48 327.799 1041.33 327.149 1041.33 326.412Z" fill="#186F65"/>
<rect x="86" y="192" width="55.2682" height="111" rx="8" fill="#0E46A3"/>
<g filter="url(#filter0_d_1_801)">
<rect x="86" y="222" width="55" height="81" rx="8" fill="#186F65"/>
</g>
<rect x="170" y="161" width="55.2682" height="142" rx="8" fill="#0E46A3"/>
<g filter="url(#filter1_d_1_801)">
<rect x="170" y="197" width="55" height="106" rx="8" fill="#186F65"/>
</g>
<rect x="253.588" y="127" width="55.2682" height="176" rx="8" fill="#0E46A3"/>
<g filter="url(#filter2_d_1_801)">
<rect x="254" y="176" width="55" height="127" rx="8" fill="#186F65"/>
</g>
<rect x="337.381" y="172" width="55.2682" height="131" rx="8" fill="#0E46A3"/>
<g filter="url(#filter3_d_1_801)">
<rect x="337" y="207" width="56" height="96" rx="8" fill="#186F65"/>
</g>
<rect x="421.175" y="209" width="55.2682" height="94" rx="8" fill="#0E46A3"/>
<g filter="url(#filter4_d_1_801)">
<rect x="421" y="242" width="55" height="61" rx="8" fill="#186F65"/>
</g>
<rect x="504.969" y="172" width="55.2682" height="131" rx="8" fill="#0E46A3"/>
<g filter="url(#filter5_d_1_801)">
<rect x="505" y="209" width="55" height="94" rx="8" fill="#186F65"/>
</g>
<rect x="588.763" y="161" width="55.2682" height="142" rx="8" fill="#0E46A3"/>
<g filter="url(#filter6_d_1_801)">
<rect x="589" y="193" width="55" height="110" rx="8" fill="#186F65"/>
</g>
<rect x="664" y="96" width="71.3139" height="207" rx="8" fill="#0E46A3"/>
<g filter="url(#filter7_d_1_801)">
<rect x="664" y="167" width="71" height="136" rx="8" fill="#186F65"/>
</g>
<rect x="756.35" y="122" width="55.2682" height="181" rx="8" fill="#0E46A3"/>
<g filter="url(#filter8_d_1_801)">
<rect x="756" y="186" width="56" height="117" rx="8" fill="#186F65"/>
</g>
<rect x="840.144" y="151" width="55.2682" height="152" rx="8" fill="#0E46A3"/>
<g filter="url(#filter9_d_1_801)">
<rect x="840" y="209" width="55" height="94" rx="8" fill="#186F65"/>
</g>
<rect x="923.938" y="192" width="55.2682" height="111" rx="8" fill="#0E46A3"/>
<g filter="url(#filter10_d_1_801)">
<rect x="924" y="227" width="55" height="76" rx="8" fill="#186F65"/>
</g>
<rect x="1007.73" y="135" width="55.2682" height="168" rx="8" fill="#0E46A3"/>
<g filter="url(#filter11_d_1_801)">
<rect x="1008" y="172" width="55" height="131" rx="8" fill="#186F65"/>
</g>
<g filter="url(#filter12_d_1_801)">
<rect x="684" y="130" width="32" height="25" rx="4" fill="#060606" shape-rendering="crispEdges"/>
<path d="M699.312 138.572L695.798 147H693.348L696.904 138.838H692.55V136.794H699.312V138.572ZM707.504 138.572L703.99 147H701.54L705.096 138.838H700.742V136.794H707.504V138.572Z" fill="white"/>
</g>
<g filter="url(#filter13_d_1_801)">
<path d="M696 151H704L700 156.5L696 151Z" fill="#060606"/>
</g>
<rect x="712" y="38" width="16" height="16" rx="2" fill="#0E46A3"/>
<path d="M739.18 43.242V50.452C739.18 51.2547 738.932 51.8987 738.438 52.384C737.943 52.86 737.29 53.098 736.478 53.098C735.656 53.098 734.998 52.8553 734.504 52.37C734.009 51.8753 733.762 51.2033 733.762 50.354H735.036C735.045 50.83 735.166 51.2173 735.4 51.516C735.642 51.8147 736.002 51.964 736.478 51.964C736.954 51.964 737.308 51.824 737.542 51.544C737.775 51.2547 737.892 50.8907 737.892 50.452V43.242H739.18ZM745.176 53.126C744.457 53.126 743.804 52.9627 743.216 52.636C742.637 52.3093 742.18 51.8473 741.844 51.25C741.517 50.6433 741.354 49.9433 741.354 49.15C741.354 48.366 741.522 47.6753 741.858 47.078C742.203 46.4713 742.67 46.0093 743.258 45.692C743.846 45.3653 744.504 45.202 745.232 45.202C745.96 45.202 746.618 45.3653 747.206 45.692C747.794 46.0093 748.256 46.4667 748.592 47.064C748.937 47.6613 749.11 48.3567 749.11 49.15C749.11 49.9433 748.932 50.6433 748.578 51.25C748.232 51.8473 747.761 52.3093 747.164 52.636C746.566 52.9627 745.904 53.126 745.176 53.126ZM745.176 52.006C745.633 52.006 746.062 51.8987 746.464 51.684C746.865 51.4693 747.187 51.1473 747.43 50.718C747.682 50.2887 747.808 49.766 747.808 49.15C747.808 48.534 747.686 48.0113 747.444 47.582C747.201 47.1527 746.884 46.8353 746.492 46.63C746.1 46.4153 745.675 46.308 745.218 46.308C744.751 46.308 744.322 46.4153 743.93 46.63C743.547 46.8353 743.239 47.1527 743.006 47.582C742.772 48.0113 742.656 48.534 742.656 49.15C742.656 49.7753 742.768 50.3027 742.992 50.732C743.225 51.1613 743.533 51.4833 743.916 51.698C744.298 51.9033 744.718 52.006 745.176 52.006ZM752.199 46.756C752.46 46.2987 752.843 45.9253 753.347 45.636C753.851 45.3467 754.425 45.202 755.069 45.202C755.759 45.202 756.38 45.3653 756.931 45.692C757.481 46.0187 757.915 46.4807 758.233 47.078C758.55 47.666 758.709 48.352 758.709 49.136C758.709 49.9107 758.55 50.6013 758.233 51.208C757.915 51.8147 757.477 52.286 756.917 52.622C756.366 52.958 755.75 53.126 755.069 53.126C754.406 53.126 753.823 52.9813 753.319 52.692C752.824 52.4027 752.451 52.034 752.199 51.586V53H750.925V42.64H752.199V46.756ZM757.407 49.136C757.407 48.5573 757.29 48.0533 757.057 47.624C756.823 47.1947 756.506 46.868 756.105 46.644C755.713 46.42 755.279 46.308 754.803 46.308C754.336 46.308 753.902 46.4247 753.501 46.658C753.109 46.882 752.791 47.2133 752.549 47.652C752.315 48.0813 752.199 48.5807 752.199 49.15C752.199 49.7287 752.315 50.2373 752.549 50.676C752.791 51.1053 753.109 51.4367 753.501 51.67C753.902 51.894 754.336 52.006 754.803 52.006C755.279 52.006 755.713 51.894 756.105 51.67C756.506 51.4367 756.823 51.1053 757.057 50.676C757.29 50.2373 757.407 49.724 757.407 49.136ZM772.462 43.242L768.78 53H767.31L763.628 43.242H764.986L768.052 51.656L771.118 43.242H772.462ZM774.657 44.082C774.414 44.082 774.209 43.998 774.041 43.83C773.873 43.662 773.789 43.4567 773.789 43.214C773.789 42.9713 773.873 42.766 774.041 42.598C774.209 42.43 774.414 42.346 774.657 42.346C774.89 42.346 775.086 42.43 775.245 42.598C775.413 42.766 775.497 42.9713 775.497 43.214C775.497 43.4567 775.413 43.662 775.245 43.83C775.086 43.998 774.89 44.082 774.657 44.082ZM775.273 45.328V53H773.999V45.328H775.273ZM784.584 48.87C784.584 49.1127 784.57 49.3693 784.542 49.64H778.41C778.457 50.396 778.714 50.9887 779.18 51.418C779.656 51.838 780.23 52.048 780.902 52.048C781.453 52.048 781.91 51.922 782.274 51.67C782.648 51.4087 782.909 51.0633 783.058 50.634H784.43C784.225 51.3713 783.814 51.9733 783.198 52.44C782.582 52.8973 781.817 53.126 780.902 53.126C780.174 53.126 779.521 52.9627 778.942 52.636C778.373 52.3093 777.925 51.8473 777.598 51.25C777.272 50.6433 777.108 49.9433 777.108 49.15C777.108 48.3567 777.267 47.6613 777.584 47.064C777.902 46.4667 778.345 46.0093 778.914 45.692C779.493 45.3653 780.156 45.202 780.902 45.202C781.63 45.202 782.274 45.3607 782.834 45.678C783.394 45.9953 783.824 46.434 784.122 46.994C784.43 47.5447 784.584 48.17 784.584 48.87ZM783.268 48.604C783.268 48.1187 783.161 47.7033 782.946 47.358C782.732 47.0033 782.438 46.7373 782.064 46.56C781.7 46.3733 781.294 46.28 780.846 46.28C780.202 46.28 779.652 46.4853 779.194 46.896C778.746 47.3067 778.49 47.876 778.424 48.604H783.268ZM796.626 45.328L794.232 53H792.916L791.068 46.91L789.22 53H787.904L785.496 45.328H786.798L788.562 51.768L790.466 45.328H791.768L793.63 51.782L795.366 45.328H796.626Z" fill="black"/>
<rect x="818" y="38" width="16" height="16" rx="2" fill="#186F65"/>
<path d="M845.312 43.242V50.452C845.312 51.2547 845.064 51.8987 844.57 52.384C844.075 52.86 843.422 53.098 842.61 53.098C841.788 53.098 841.13 52.8553 840.636 52.37C840.141 51.8753 839.894 51.2033 839.894 50.354H841.168C841.177 50.83 841.298 51.2173 841.532 51.516C841.774 51.8147 842.134 51.964 842.61 51.964C843.086 51.964 843.44 51.824 843.674 51.544C843.907 51.2547 844.024 50.8907 844.024 50.452V43.242H845.312ZM851.307 53.126C850.589 53.126 849.935 52.9627 849.347 52.636C848.769 52.3093 848.311 51.8473 847.975 51.25C847.649 50.6433 847.485 49.9433 847.485 49.15C847.485 48.366 847.653 47.6753 847.989 47.078C848.335 46.4713 848.801 46.0093 849.389 45.692C849.977 45.3653 850.635 45.202 851.363 45.202C852.091 45.202 852.749 45.3653 853.337 45.692C853.925 46.0093 854.387 46.4667 854.723 47.064C855.069 47.6613 855.241 48.3567 855.241 49.15C855.241 49.9433 855.064 50.6433 854.709 51.25C854.364 51.8473 853.893 52.3093 853.295 52.636C852.698 52.9627 852.035 53.126 851.307 53.126ZM851.307 52.006C851.765 52.006 852.194 51.8987 852.595 51.684C852.997 51.4693 853.319 51.1473 853.561 50.718C853.813 50.2887 853.939 49.766 853.939 49.15C853.939 48.534 853.818 48.0113 853.575 47.582C853.333 47.1527 853.015 46.8353 852.623 46.63C852.231 46.4153 851.807 46.308 851.349 46.308C850.883 46.308 850.453 46.4153 850.061 46.63C849.679 46.8353 849.371 47.1527 849.137 47.582C848.904 48.0113 848.787 48.534 848.787 49.15C848.787 49.7753 848.899 50.3027 849.123 50.732C849.357 51.1613 849.665 51.4833 850.047 51.698C850.43 51.9033 850.85 52.006 851.307 52.006ZM858.33 46.756C858.592 46.2987 858.974 45.9253 859.478 45.636C859.982 45.3467 860.556 45.202 861.2 45.202C861.891 45.202 862.512 45.3653 863.062 45.692C863.613 46.0187 864.047 46.4807 864.364 47.078C864.682 47.666 864.84 48.352 864.84 49.136C864.84 49.9107 864.682 50.6013 864.364 51.208C864.047 51.8147 863.608 52.286 863.048 52.622C862.498 52.958 861.882 53.126 861.2 53.126C860.538 53.126 859.954 52.9813 859.45 52.692C858.956 52.4027 858.582 52.034 858.33 51.586V53H857.056V42.64H858.33V46.756ZM863.538 49.136C863.538 48.5573 863.422 48.0533 863.188 47.624C862.955 47.1947 862.638 46.868 862.236 46.644C861.844 46.42 861.41 46.308 860.934 46.308C860.468 46.308 860.034 46.4247 859.632 46.658C859.24 46.882 858.923 47.2133 858.68 47.652C858.447 48.0813 858.33 48.5807 858.33 49.15C858.33 49.7287 858.447 50.2373 858.68 50.676C858.923 51.1053 859.24 51.4367 859.632 51.67C860.034 51.894 860.468 52.006 860.934 52.006C861.41 52.006 861.844 51.894 862.236 51.67C862.638 51.4367 862.955 51.1053 863.188 50.676C863.422 50.2373 863.538 49.724 863.538 49.136ZM876.298 50.83H872.042L871.258 53H869.914L873.442 43.298H874.912L878.426 53H877.082L876.298 50.83ZM875.934 49.794L874.17 44.866L872.406 49.794H875.934ZM881.377 46.742C881.629 46.3033 882.003 45.9393 882.497 45.65C883.001 45.3513 883.585 45.202 884.247 45.202C884.929 45.202 885.545 45.3653 886.095 45.692C886.655 46.0187 887.094 46.4807 887.411 47.078C887.729 47.666 887.887 48.352 887.887 49.136C887.887 49.9107 887.729 50.6013 887.411 51.208C887.094 51.8147 886.655 52.286 886.095 52.622C885.545 52.958 884.929 53.126 884.247 53.126C883.594 53.126 883.015 52.9813 882.511 52.692C882.017 52.3933 881.639 52.0247 881.377 51.586V56.64H880.103V45.328H881.377V46.742ZM886.585 49.136C886.585 48.5573 886.469 48.0533 886.235 47.624C886.002 47.1947 885.685 46.868 885.283 46.644C884.891 46.42 884.457 46.308 883.981 46.308C883.515 46.308 883.081 46.4247 882.679 46.658C882.287 46.882 881.97 47.2133 881.727 47.652C881.494 48.0813 881.377 48.5807 881.377 49.15C881.377 49.7287 881.494 50.2373 881.727 50.676C881.97 51.1053 882.287 51.4367 882.679 51.67C883.081 51.894 883.515 52.006 883.981 52.006C884.457 52.006 884.891 51.894 885.283 51.67C885.685 51.4367 886.002 51.1053 886.235 50.676C886.469 50.2373 886.585 49.724 886.585 49.136ZM890.978 46.742C891.23 46.3033 891.604 45.9393 892.098 45.65C892.602 45.3513 893.186 45.202 893.848 45.202C894.53 45.202 895.146 45.3653 895.696 45.692C896.256 46.0187 896.695 46.4807 897.012 47.078C897.33 47.666 897.488 48.352 897.488 49.136C897.488 49.9107 897.33 50.6013 897.012 51.208C896.695 51.8147 896.256 52.286 895.696 52.622C895.146 52.958 894.53 53.126 893.848 53.126C893.195 53.126 892.616 52.9813 892.112 52.692C891.618 52.3933 891.24 52.0247 890.978 51.586V56.64H889.704V45.328H890.978V46.742ZM896.186 49.136C896.186 48.5573 896.07 48.0533 895.836 47.624C895.603 47.1947 895.286 46.868 894.884 46.644C894.492 46.42 894.058 46.308 893.582 46.308C893.116 46.308 892.682 46.4247 892.28 46.658C891.888 46.882 891.571 47.2133 891.328 47.652C891.095 48.0813 890.978 48.5807 890.978 49.15C890.978 49.7287 891.095 50.2373 891.328 50.676C891.571 51.1053 891.888 51.4367 892.28 51.67C892.682 51.894 893.116 52.006 893.582 52.006C894.058 52.006 894.492 51.894 894.884 51.67C895.286 51.4367 895.603 51.1053 895.836 50.676C896.07 50.2373 896.186 49.724 896.186 49.136ZM900.579 42.64V53H899.305V42.64H900.579ZM903.549 44.082C903.306 44.082 903.101 43.998 902.933 43.83C902.765 43.662 902.681 43.4567 902.681 43.214C902.681 42.9713 902.765 42.766 902.933 42.598C903.101 42.43 903.306 42.346 903.549 42.346C903.782 42.346 903.978 42.43 904.137 42.598C904.305 42.766 904.389 42.9713 904.389 43.214C904.389 43.4567 904.305 43.662 904.137 43.83C903.978 43.998 903.782 44.082 903.549 44.082ZM904.165 45.328V53H902.891V45.328H904.165ZM913.476 48.87C913.476 49.1127 913.462 49.3693 913.434 49.64H907.302C907.349 50.396 907.605 50.9887 908.072 51.418C908.548 51.838 909.122 52.048 909.794 52.048C910.345 52.048 910.802 51.922 911.166 51.67C911.539 51.4087 911.801 51.0633 911.95 50.634H913.322C913.117 51.3713 912.706 51.9733 912.09 52.44C911.474 52.8973 910.709 53.126 909.794 53.126C909.066 53.126 908.413 52.9627 907.834 52.636C907.265 52.3093 906.817 51.8473 906.49 51.25C906.163 50.6433 906 49.9433 906 49.15C906 48.3567 906.159 47.6613 906.476 47.064C906.793 46.4667 907.237 46.0093 907.806 45.692C908.385 45.3653 909.047 45.202 909.794 45.202C910.522 45.202 911.166 45.3607 911.726 45.678C912.286 45.9953 912.715 46.434 913.014 46.994C913.322 47.5447 913.476 48.17 913.476 48.87ZM912.16 48.604C912.16 48.1187 912.053 47.7033 911.838 47.358C911.623 47.0033 911.329 46.7373 910.956 46.56C910.592 46.3733 910.186 46.28 909.738 46.28C909.094 46.28 908.543 46.4853 908.086 46.896C907.638 47.3067 907.381 47.876 907.316 48.604H912.16ZM914.822 49.136C914.822 48.352 914.98 47.666 915.298 47.078C915.615 46.4807 916.049 46.0187 916.6 45.692C917.16 45.3653 917.785 45.202 918.476 45.202C919.073 45.202 919.628 45.342 920.142 45.622C920.655 45.8927 921.047 46.252 921.318 46.7V42.64H922.606V53H921.318V51.558C921.066 52.0153 920.692 52.3933 920.198 52.692C919.703 52.9813 919.124 53.126 918.462 53.126C917.78 53.126 917.16 52.958 916.6 52.622C916.049 52.286 915.615 51.8147 915.298 51.208C914.98 50.6013 914.822 49.9107 914.822 49.136ZM921.318 49.15C921.318 48.5713 921.201 48.0673 920.968 47.638C920.734 47.2087 920.417 46.882 920.016 46.658C919.624 46.4247 919.19 46.308 918.714 46.308C918.238 46.308 917.804 46.42 917.412 46.644C917.02 46.868 916.707 47.1947 916.474 47.624C916.24 48.0533 916.124 48.5573 916.124 49.136C916.124 49.724 916.24 50.2373 916.474 50.676C916.707 51.1053 917.02 51.4367 917.412 51.67C917.804 51.894 918.238 52.006 918.714 52.006C919.19 52.006 919.624 51.894 920.016 51.67C920.417 51.4367 920.734 51.1053 920.968 50.676C921.201 50.2373 921.318 49.7287 921.318 49.15Z" fill="black"/>
<defs>
<filter id="filter0_d_1_801" x="74" y="218" width="79" height="105" filterUnits="userSpaceOnUse" color-interpolation-filters="sRGB">
<feFlood flood-opacity="0" result="BackgroundImageFix"/>
<feColorMatrix in="SourceAlpha" type="matrix" values="0 0 0 0 0 0 0 0 0 0 0 0 0 0 0 0 0 0 127 0" result="hardAlpha"/>
<feOffset dy="8"/>
<feGaussianBlur stdDeviation="6"/>
<feComposite in2="hardAlpha" operator="out"/>
<feColorMatrix type="matrix" values="0 0 0 0 0.52849 0 0 0 0 0.566891 0 0 0 0 0.9125 0 0 0 0.3 0"/>
<feBlend mode="normal" in2="BackgroundImageFix" result="effect1_dropShadow_1_801"/>
<feBlend mode="normal" in="SourceGraphic" in2="effect1_dropShadow_1_801" result="shape"/>
</filter>
<filter id="filter1_d_1_801" x="158" y="193" width="79" height="130" filterUnits="userSpaceOnUse" color-interpolation-filters="sRGB">
<feFlood flood-opacity="0" result="BackgroundImageFix"/>
<feColorMatrix in="SourceAlpha" type="matrix" values="0 0 0 0 0 0 0 0 0 0 0 0 0 0 0 0 0 0 127 0" result="hardAlpha"/>
<feOffset dy="8"/>
<feGaussianBlur stdDeviation="6"/>
<feComposite in2="hardAlpha" operator="out"/>
<feColorMatrix type="matrix" values="0 0 0 0 0.52849 0 0 0 0 0.566891 0 0 0 0 0.9125 0 0 0 0.3 0"/>
<feBlend mode="normal" in2="BackgroundImageFix" result="effect1_dropShadow_1_801"/>
<feBlend mode="normal" in="SourceGraphic" in2="effect1_dropShadow_1_801" result="shape"/>
</filter>
<filter id="filter2_d_1_801" x="242" y="172" width="79" height="151" filterUnits="userSpaceOnUse" color-interpolation-filters="sRGB">
<feFlood flood-opacity="0" result="BackgroundImageFix"/>
<feColorMatrix in="SourceAlpha" type="matrix" values="0 0 0 0 0 0 0 0 0 0 0 0 0 0 0 0 0 0 127 0" result="hardAlpha"/>
<feOffset dy="8"/>
<feGaussianBlur stdDeviation="6"/>
<feComposite in2="hardAlpha" operator="out"/>
<feColorMatrix type="matrix" values="0 0 0 0 0.52849 0 0 0 0 0.566891 0 0 0 0 0.9125 0 0 0 0.3 0"/>
<feBlend mode="normal" in2="BackgroundImageFix" result="effect1_dropShadow_1_801"/>
<feBlend mode="normal" in="SourceGraphic" in2="effect1_dropShadow_1_801" result="shape"/>
</filter>
<filter id="filter3_d_1_801" x="325" y="203" width="80" height="120" filterUnits="userSpaceOnUse" color-interpolation-filters="sRGB">
<feFlood flood-opacity="0" result="BackgroundImageFix"/>
<feColorMatrix in="SourceAlpha" type="matrix" values="0 0 0 0 0 0 0 0 0 0 0 0 0 0 0 0 0 0 127 0" result="hardAlpha"/>
<feOffset dy="8"/>
<feGaussianBlur stdDeviation="6"/>
<feComposite in2="hardAlpha" operator="out"/>
<feColorMatrix type="matrix" values="0 0 0 0 0.52849 0 0 0 0 0.566891 0 0 0 0 0.9125 0 0 0 0.3 0"/>
<feBlend mode="normal" in2="BackgroundImageFix" result="effect1_dropShadow_1_801"/>
<feBlend mode="normal" in="SourceGraphic" in2="effect1_dropShadow_1_801" result="shape"/>
</filter>
<filter id="filter4_d_1_801" x="409" y="238" width="79" height="85" filterUnits="userSpaceOnUse" color-interpolation-filters="sRGB">
<feFlood flood-opacity="0" result="BackgroundImageFix"/>
<feColorMatrix in="SourceAlpha" type="matrix" values="0 0 0 0 0 0 0 0 0 0 0 0 0 0 0 0 0 0 127 0" result="hardAlpha"/>
<feOffset dy="8"/>
<feGaussianBlur stdDeviation="6"/>
<feComposite in2="hardAlpha" operator="out"/>
<feColorMatrix type="matrix" values="0 0 0 0 0.52849 0 0 0 0 0.566891 0 0 0 0 0.9125 0 0 0 0.3 0"/>
<feBlend mode="normal" in2="BackgroundImageFix" result="effect1_dropShadow_1_801"/>
<feBlend mode="normal" in="SourceGraphic" in2="effect1_dropShadow_1_801" result="shape"/>
</filter>
<filter id="filter5_d_1_801" x="493" y="205" width="79" height="118" filterUnits="userSpaceOnUse" color-interpolation-filters="sRGB">
<feFlood flood-opacity="0" result="BackgroundImageFix"/>
<feColorMatrix in="SourceAlpha" type="matrix" values="0 0 0 0 0 0 0 0 0 0 0 0 0 0 0 0 0 0 127 0" result="hardAlpha"/>
<feOffset dy="8"/>
<feGaussianBlur stdDeviation="6"/>
<feComposite in2="hardAlpha" operator="out"/>
<feColorMatrix type="matrix" values="0 0 0 0 0.52849 0 0 0 0 0.566891 0 0 0 0 0.9125 0 0 0 0.3 0"/>
<feBlend mode="normal" in2="BackgroundImageFix" result="effect1_dropShadow_1_801"/>
<feBlend mode="normal" in="SourceGraphic" in2="effect1_dropShadow_1_801" result="shape"/>
</filter>
<filter id="filter6_d_1_801" x="577" y="189" width="79" height="134" filterUnits="userSpaceOnUse" color-interpolation-filters="sRGB">
<feFlood flood-opacity="0" result="BackgroundImageFix"/>
<feColorMatrix in="SourceAlpha" type="matrix" values="0 0 0 0 0 0 0 0 0 0 0 0 0 0 0 0 0 0 127 0" result="hardAlpha"/>
<feOffset dy="8"/>
<feGaussianBlur stdDeviation="6"/>
<feComposite in2="hardAlpha" operator="out"/>
<feColorMatrix type="matrix" values="0 0 0 0 0.52849 0 0 0 0 0.566891 0 0 0 0 0.9125 0 0 0 0.3 0"/>
<feBlend mode="normal" in2="BackgroundImageFix" result="effect1_dropShadow_1_801"/>
<feBlend mode="normal" in="SourceGraphic" in2="effect1_dropShadow_1_801" result="shape"/>
</filter>
<filter id="filter7_d_1_801" x="652" y="163" width="95" height="160" filterUnits="userSpaceOnUse" color-interpolation-filters="sRGB">
<feFlood flood-opacity="0" result="BackgroundImageFix"/>
<feColorMatrix in="SourceAlpha" type="matrix" values="0 0 0 0 0 0 0 0 0 0 0 0 0 0 0 0 0 0 127 0" result="hardAlpha"/>
<feOffset dy="8"/>
<feGaussianBlur stdDeviation="6"/>
<feComposite in2="hardAlpha" operator="out"/>
<feColorMatrix type="matrix" values="0 0 0 0 0.52849 0 0 0 0 0.566891 0 0 0 0 0.9125 0 0 0 0.3 0"/>
<feBlend mode="normal" in2="BackgroundImageFix" result="effect1_dropShadow_1_801"/>
<feBlend mode="normal" in="SourceGraphic" in2="effect1_dropShadow_1_801" result="shape"/>
</filter>
<filter id="filter8_d_1_801" x="744" y="182" width="80" height="141" filterUnits="userSpaceOnUse" color-interpolation-filters="sRGB">
<feFlood flood-opacity="0" result="BackgroundImageFix"/>
<feColorMatrix in="SourceAlpha" type="matrix" values="0 0 0 0 0 0 0 0 0 0 0 0 0 0 0 0 0 0 127 0" result="hardAlpha"/>
<feOffset dy="8"/>
<feGaussianBlur stdDeviation="6"/>
<feComposite in2="hardAlpha" operator="out"/>
<feColorMatrix type="matrix" values="0 0 0 0 0.52849 0 0 0 0 0.566891 0 0 0 0 0.9125 0 0 0 0.3 0"/>
<feBlend mode="normal" in2="BackgroundImageFix" result="effect1_dropShadow_1_801"/>
<feBlend mode="normal" in="SourceGraphic" in2="effect1_dropShadow_1_801" result="shape"/>
</filter>
<filter id="filter9_d_1_801" x="828" y="205" width="79" height="118" filterUnits="userSpaceOnUse" color-interpolation-filters="sRGB">
<feFlood flood-opacity="0" result="BackgroundImageFix"/>
<feColorMatrix in="SourceAlpha" type="matrix" values="0 0 0 0 0 0 0 0 0 0 0 0 0 0 0 0 0 0 127 0" result="hardAlpha"/>
<feOffset dy="8"/>
<feGaussianBlur stdDeviation="6"/>
<feComposite in2="hardAlpha" operator="out"/>
<feColorMatrix type="matrix" values="0 0 0 0 0.52849 0 0 0 0 0.566891 0 0 0 0 0.9125 0 0 0 0.3 0"/>
<feBlend mode="normal" in2="BackgroundImageFix" result="effect1_dropShadow_1_801"/>
<feBlend mode="normal" in="SourceGraphic" in2="effect1_dropShadow_1_801" result="shape"/>
</filter>
<filter id="filter10_d_1_801" x="912" y="223" width="79" height="100" filterUnits="userSpaceOnUse" color-interpolation-filters="sRGB">
<feFlood flood-opacity="0" result="BackgroundImageFix"/>
<feColorMatrix in="SourceAlpha" type="matrix" values="0 0 0 0 0 0 0 0 0 0 0 0 0 0 0 0 0 0 127 0" result="hardAlpha"/>
<feOffset dy="8"/>
<feGaussianBlur stdDeviation="6"/>
<feComposite in2="hardAlpha" operator="out"/>
<feColorMatrix type="matrix" values="0 0 0 0 0.52849 0 0 0 0 0.566891 0 0 0 0 0.9125 0 0 0 0.3 0"/>
<feBlend mode="normal" in2="BackgroundImageFix" result="effect1_dropShadow_1_801"/>
<feBlend mode="normal" in="SourceGraphic" in2="effect1_dropShadow_1_801" result="shape"/>
</filter>
<filter id="filter11_d_1_801" x="996" y="168" width="79" height="155" filterUnits="userSpaceOnUse" color-interpolation-filters="sRGB">
<feFlood flood-opacity="0" result="BackgroundImageFix"/>
<feColorMatrix in="SourceAlpha" type="matrix" values="0 0 0 0 0 0 0 0 0 0 0 0 0 0 0 0 0 0 127 0" result="hardAlpha"/>
<feOffset dy="8"/>
<feGaussianBlur stdDeviation="6"/>
<feComposite in2="hardAlpha" operator="out"/>
<feColorMatrix type="matrix" values="0 0 0 0 0.52849 0 0 0 0 0.566891 0 0 0 0 0.9125 0 0 0 0.3 0"/>
<feBlend mode="normal" in2="BackgroundImageFix" result="effect1_dropShadow_1_801"/>
<feBlend mode="normal" in="SourceGraphic" in2="effect1_dropShadow_1_801" result="shape"/>
</filter>
<filter id="filter12_d_1_801" x="676" y="126" width="48" height="41" filterUnits="userSpaceOnUse" color-interpolation-filters="sRGB">
<feFlood flood-opacity="0" result="BackgroundImageFix"/>
<feColorMatrix in="SourceAlpha" type="matrix" values="0 0 0 0 0 0 0 0 0 0 0 0 0 0 0 0 0 0 127 0" result="hardAlpha"/>
<feOffset dy="4"/>
<feGaussianBlur stdDeviation="4"/>
<feComposite in2="hardAlpha" operator="out"/>
<feColorMatrix type="matrix" values="0 0 0 0 0 0 0 0 0 0 0 0 0 0 0 0 0 0 0.1 0"/>
<feBlend mode="normal" in2="BackgroundImageFix" result="effect1_dropShadow_1_801"/>
<feBlend mode="normal" in="SourceGraphic" in2="effect1_dropShadow_1_801" result="shape"/>
</filter>
<filter id="filter13_d_1_801" x="688" y="147" width="24" height="21.5" filterUnits="userSpaceOnUse" color-interpolation-filters="sRGB">
<feFlood flood-opacity="0" result="BackgroundImageFix"/>
<feColorMatrix in="SourceAlpha" type="matrix" values="0 0 0 0 0 0 0 0 0 0 0 0 0 0 0 0 0 0 127 0" result="hardAlpha"/>
<feOffset dy="4"/>
<feGaussianBlur stdDeviation="4"/>
<feComposite in2="hardAlpha" operator="out"/>
<feColorMatrix type="matrix" values="0 0 0 0 0 0 0 0 0 0 0 0 0 0 0 0 0 0 0.1 0"/>
<feBlend mode="normal" in2="BackgroundImageFix" result="effect1_dropShadow_1_801"/>
<feBlend mode="normal" in="SourceGraphic" in2="effect1_dropShadow_1_801" result="shape"/>
</filter>
</defs>
</svg>
