<svg width="28" height="28" viewBox="0 0 28 28" fill="none" xmlns="http://www.w3.org/2000/svg">
<path fill-rule="evenodd" clip-rule="evenodd" d="M4.6665 5.24982C4.6665 4.47623 4.97381 3.73433 5.52082 3.18732C6.06783 2.64031 6.80973 2.33301 7.58332 2.33301H20.4169C21.1904 2.33324 21.9321 2.64065 22.4789 3.18763C23.0257 3.73461 23.3329 4.47639 23.3329 5.24982V8.45801C23.3329 8.61268 23.2714 8.76101 23.1621 8.87038C23.0527 8.97975 22.9044 9.0412 22.7497 9.0412C22.595 9.0412 22.4467 8.97975 22.3373 8.87038C22.2279 8.76101 22.1665 8.61268 22.1665 8.45801V5.24982C22.1665 4.78569 21.9821 4.34057 21.6539 4.01238C21.3258 3.68419 20.8806 3.49982 20.4165 3.49982H7.58288C7.11875 3.49982 6.67363 3.68419 6.34544 4.01238C6.01725 4.34057 5.83288 4.78569 5.83288 5.24982V22.7498C5.83288 23.2139 6.01725 23.6591 6.34544 23.9873C6.67363 24.3154 7.11875 24.4998 7.58288 24.4998H20.4165C20.8806 24.4998 21.3258 24.3154 21.6539 23.9873C21.9821 23.6591 22.1665 23.2139 22.1665 22.7498V19.5412C22.1665 19.3865 22.2279 19.2382 22.3373 19.1288C22.4467 19.0195 22.595 18.958 22.7497 18.958C22.9044 18.958 23.0527 19.0195 23.1621 19.1288C23.2714 19.2382 23.3329 19.3865 23.3329 19.5412V22.7498C23.3328 23.5233 23.0255 24.265 22.4786 24.8119C21.9317 25.3588 21.1899 25.6661 20.4165 25.6662H7.58288C6.80952 25.666 6.06791 25.3586 5.5211 24.8117C4.97429 24.2648 4.66706 23.5232 4.66694 22.7498L4.6665 5.24982Z" fill="#EAEAEA" stroke="#EAEAEA"/>
<path fill-rule="evenodd" clip-rule="evenodd" d="M19.4205 10.6706C19.193 10.8985 19.193 11.2677 19.4205 11.4957L21.3416 13.4163H12.2499C12.0952 13.4163 11.9468 13.4778 11.8374 13.5872C11.728 13.6966 11.6665 13.845 11.6665 13.9997C11.6665 14.1544 11.728 14.3028 11.8374 14.4122C11.9468 14.5217 12.0952 14.5831 12.2499 14.5831H21.3412L19.4205 16.5037C19.3664 16.5579 19.3234 16.6222 19.294 16.6929C19.2647 16.7637 19.2496 16.8396 19.2496 16.9162C19.2496 16.9928 19.2646 17.0686 19.2939 17.1394C19.3232 17.2102 19.3662 17.2745 19.4203 17.3287C19.4745 17.3828 19.5388 17.4258 19.6095 17.4551C19.6803 17.4845 19.7561 17.4996 19.8327 17.4996C19.9093 17.4996 19.9852 17.4846 20.056 17.4553C20.1267 17.426 20.191 17.383 20.2452 17.3289L23.162 14.4125C23.3895 14.185 23.3895 13.8153 23.162 13.5874L20.2452 10.671C20.1911 10.6168 20.1267 10.5738 20.056 10.5444C19.9852 10.5151 19.9093 10.5 19.8327 10.5C19.756 10.5 19.6802 10.5151 19.6094 10.5444C19.5386 10.5738 19.4743 10.6168 19.4201 10.671L19.4205 10.6706Z" fill="#EAEAEA" stroke="#EAEAEA"/>
</svg>
