<svg width="66" height="66" viewBox="0 0 66 66" fill="none" xmlns="http://www.w3.org/2000/svg">
<path d="M49.913 25.148L49.088 50.1187C49.0177 52.2573 48.1168 54.2843 46.5765 55.7696C45.0362 57.2548 42.9777 58.0814 40.8379 58.0738H25.163C23.0246 58.0814 20.9673 57.256 19.4272 55.7725C17.8871 54.2891 16.9853 52.2641 16.913 50.127L16.088 25.148C16.0699 24.601 16.2699 24.0692 16.6439 23.6697C17.0179 23.2701 17.5354 23.0355 18.0824 23.0175C18.6294 22.9994 19.1612 23.1994 19.5607 23.5734C19.9603 23.9475 20.1949 24.4649 20.213 25.0119L21.038 49.9888C21.079 51.055 21.5317 52.0639 22.3009 52.8035C23.0701 53.543 24.0959 53.9557 25.163 53.955H40.8379C41.9064 53.9557 42.9334 53.5418 43.7028 52.8005C44.4722 52.0592 44.924 51.0482 44.9629 49.9805L45.788 25.0119C45.806 24.4649 46.0406 23.9475 46.4402 23.5734C46.8397 23.1994 47.3715 22.9994 47.9185 23.0175C48.4655 23.0355 48.983 23.2701 49.357 23.6697C49.731 24.0692 49.931 24.601 49.913 25.148ZM52.6416 16.8382C52.6416 17.3852 52.4243 17.9098 52.0375 18.2966C51.6508 18.6834 51.1261 18.9007 50.5791 18.9007H15.4238C14.8768 18.9007 14.3522 18.6834 13.9654 18.2966C13.5786 17.9098 13.3613 17.3852 13.3613 16.8382C13.3613 16.2912 13.5786 15.7666 13.9654 15.3798C14.3522 14.993 14.8768 14.7757 15.4238 14.7757H21.8176C22.4711 14.7775 23.1019 14.536 23.5872 14.0984C24.0725 13.6607 24.3776 13.0582 24.4431 12.408C24.5953 10.8827 25.3099 9.46875 26.4477 8.44158C27.5854 7.41441 29.0648 6.8476 30.5976 6.85158H35.4033C36.9361 6.8476 38.4155 7.41441 39.5532 8.44158C40.691 9.46875 41.4056 10.8827 41.5578 12.408C41.6233 13.0582 41.9284 13.6607 42.4137 14.0984C42.899 14.536 43.5298 14.7775 44.1833 14.7757H50.5771C51.1241 14.7757 51.6487 14.993 52.0355 15.3798C52.4223 15.7666 52.6396 16.2912 52.6396 16.8382H52.6416ZM28.0236 14.7757H37.9814C37.7104 14.1564 37.5331 13.5002 37.4555 12.8287C37.4044 12.3203 37.1664 11.849 36.7876 11.5061C36.4088 11.1631 35.9163 10.973 35.4053 10.9725H30.5997C30.0888 10.973 29.5962 11.1631 29.2174 11.5061C28.8387 11.849 28.6007 12.3203 28.5496 12.8287C28.4713 13.5003 28.2954 14.1565 28.0236 14.7757ZM30.1006 46.0247V28.4625C30.1006 27.9154 29.8833 27.3908 29.4965 27.0041C29.1097 26.6173 28.5851 26.4 28.0381 26.4C27.4911 26.4 26.9665 26.6173 26.5797 27.0041C26.1929 27.3908 25.9756 27.9154 25.9756 28.4625V46.0329C25.9756 46.5799 26.1929 47.1045 26.5797 47.4913C26.9665 47.8781 27.4911 48.0954 28.0381 48.0954C28.5851 48.0954 29.1097 47.8781 29.4965 47.4913C29.8833 47.1045 30.1006 46.5799 30.1006 46.0329V46.0247ZM40.0295 46.0247V28.4625C40.0295 27.9154 39.8122 27.3908 39.4254 27.0041C39.0386 26.6173 38.514 26.4 37.967 26.4C37.4199 26.4 36.8953 26.6173 36.5085 27.0041C36.1217 27.3908 35.9045 27.9154 35.9045 28.4625V46.0329C35.9045 46.5799 36.1217 47.1045 36.5085 47.4913C36.8953 47.8781 37.4199 48.0954 37.967 48.0954C38.514 48.0954 39.0386 47.8781 39.4254 47.4913C39.8122 47.1045 40.0295 46.5799 40.0295 46.0329V46.0247Z" fill="#186F65"/>
</svg>
