<svg width="28" height="28" viewBox="0 0 28 28" fill="none" xmlns="http://www.w3.org/2000/svg">
<path d="M24.3457 6.03383L25.1619 5.29911C25.3784 5.10147 25.5 4.83341 25.5 4.5539C25.5 4.27438 25.3784 4.00632 25.1619 3.80868C24.9455 3.61104 24.6519 3.5 24.3457 3.5C24.0396 3.5 23.746 3.61104 23.5295 3.80868L21.9202 5.28862L18.6669 8.25899L11.4132 14.8715C10.2246 14.1555 8.78717 13.8678 7.37953 14.0642C5.97189 14.2606 4.69421 14.9271 3.79406 15.9346C2.89392 16.942 2.4354 18.2187 2.50735 19.5172C2.5793 20.8157 3.17659 22.0435 4.1835 22.9629C5.19041 23.8822 6.53524 24.4276 7.9574 24.4933C9.37957 24.559 10.7778 24.1403 11.8812 23.3185C12.9846 22.4966 13.7146 21.33 13.9297 20.0448C14.1448 18.7595 13.8297 17.4471 13.0455 16.3619L19.4716 10.4841L21.9087 12.7198C22.0158 12.817 22.1429 12.8939 22.2827 12.9462C22.4224 12.9986 22.5721 13.0252 22.7232 13.0248C22.8742 13.0243 23.0237 12.9966 23.163 12.9434C23.3024 12.8902 23.4289 12.8124 23.5353 12.7145C23.6417 12.6167 23.726 12.5006 23.7833 12.373C23.8406 12.2454 23.8698 12.1088 23.8693 11.9709C23.8688 11.8329 23.8385 11.6965 23.7802 11.5693C23.7219 11.442 23.6367 11.3265 23.5295 11.2294L21.0925 9.0042L22.7249 7.52427L23.5295 8.25899C23.636 8.35685 23.7625 8.43461 23.9018 8.48784C24.0412 8.54107 24.1906 8.56872 24.3417 8.5692C24.4927 8.56969 24.6424 8.54301 24.7821 8.49068C24.9219 8.43836 25.049 8.36141 25.1562 8.26423C25.2634 8.16706 25.3485 8.05156 25.4068 7.92433C25.4651 7.79711 25.4954 7.66064 25.4959 7.52273C25.4965 7.38482 25.4672 7.24816 25.4099 7.12056C25.3526 6.99296 25.2684 6.87691 25.1619 6.77905L24.3457 6.03383ZM8.25185 22.3971C7.56977 22.3971 6.903 22.2124 6.33587 21.8664C5.76873 21.5204 5.3267 21.0287 5.06568 20.4533C4.80466 19.8779 4.73636 19.2448 4.86943 18.634C5.0025 18.0232 5.33096 17.4621 5.81326 17.0218C6.29557 16.5814 6.91007 16.2815 7.57905 16.16C8.24803 16.0385 8.94144 16.1009 9.57161 16.3392C10.2018 16.5775 10.7404 16.9811 11.1193 17.4989C11.4983 18.0167 11.7005 18.6255 11.7005 19.2483C11.7005 20.0834 11.3372 20.8843 10.6904 21.4748C10.0437 22.0654 9.1665 22.3971 8.25185 22.3971Z" fill="#292D32"/>
</svg>
