<svg width="66" height="27" viewBox="0 0 66 27" fill="none" xmlns="http://www.w3.org/2000/svg">
<rect width="66" height="27" rx="13.5" fill="#23C10A" fill-opacity="0.15"/>
<path d="M9.83364 12.5749L12.167 14.9082L15.4961 11.5792L16.8336 12.9167V9.41675H13.3336L14.6712 10.7543L12.167 13.2586L9.83364 10.9252L5.33789 15.421L6.16272 16.2458L9.83364 12.5749Z" fill="#0B8A00"/>
<path d="M21.378 10.006V7.78H25.256V18H22.764V10.006H21.378ZM27.0337 12.75C27.0337 11.1447 27.3417 9.88 27.9577 8.956C28.583 8.032 29.5863 7.57 30.9677 7.57C32.349 7.57 33.3477 8.032 33.9637 8.956C34.589 9.88 34.9017 11.1447 34.9017 12.75C34.9017 14.374 34.589 15.648 33.9637 16.572C33.3477 17.496 32.349 17.958 30.9677 17.958C29.5863 17.958 28.583 17.496 27.9577 16.572C27.3417 15.648 27.0337 14.374 27.0337 12.75ZM32.5497 12.75C32.5497 11.8073 32.447 11.084 32.2417 10.58C32.0363 10.0667 31.6117 9.81 30.9677 9.81C30.3237 9.81 29.899 10.0667 29.6937 10.58C29.4883 11.084 29.3857 11.8073 29.3857 12.75C29.3857 13.3847 29.423 13.912 29.4977 14.332C29.5723 14.7427 29.7217 15.0787 29.9457 15.34C30.179 15.592 30.5197 15.718 30.9677 15.718C31.4157 15.718 31.7517 15.592 31.9757 15.34C32.209 15.0787 32.363 14.7427 32.4377 14.332C32.5123 13.912 32.5497 13.3847 32.5497 12.75ZM37.6645 18.112C37.2445 18.112 36.8992 17.9907 36.6285 17.748C36.3672 17.496 36.2365 17.188 36.2365 16.824C36.2365 16.4507 36.3672 16.138 36.6285 15.886C36.8992 15.634 37.2445 15.508 37.6645 15.508C38.0752 15.508 38.4112 15.634 38.6725 15.886C38.9432 16.138 39.0785 16.4507 39.0785 16.824C39.0785 17.188 38.9432 17.496 38.6725 17.748C38.4112 17.9907 38.0752 18.112 37.6645 18.112ZM40.3977 12.75C40.3977 11.1447 40.7057 9.88 41.3217 8.956C41.947 8.032 42.9503 7.57 44.3317 7.57C45.713 7.57 46.7117 8.032 47.3277 8.956C47.953 9.88 48.2657 11.1447 48.2657 12.75C48.2657 14.374 47.953 15.648 47.3277 16.572C46.7117 17.496 45.713 17.958 44.3317 17.958C42.9503 17.958 41.947 17.496 41.3217 16.572C40.7057 15.648 40.3977 14.374 40.3977 12.75ZM45.9137 12.75C45.9137 11.8073 45.811 11.084 45.6057 10.58C45.4003 10.0667 44.9757 9.81 44.3317 9.81C43.6877 9.81 43.263 10.0667 43.0577 10.58C42.8523 11.084 42.7497 11.8073 42.7497 12.75C42.7497 13.3847 42.787 13.912 42.8617 14.332C42.9363 14.7427 43.0857 15.0787 43.3097 15.34C43.543 15.592 43.8837 15.718 44.3317 15.718C44.7797 15.718 45.1157 15.592 45.3397 15.34C45.573 15.0787 45.727 14.7427 45.8017 14.332C45.8763 13.912 45.9137 13.3847 45.9137 12.75ZM49.4745 10.356C49.4745 9.6 49.6891 9.01667 50.1185 8.606C50.5571 8.19533 51.1218 7.99 51.8125 7.99C52.5031 7.99 53.0631 8.19533 53.4925 8.606C53.9218 9.01667 54.1365 9.6 54.1365 10.356C54.1365 11.112 53.9218 11.6953 53.4925 12.106C53.0631 12.5167 52.5031 12.722 51.8125 12.722C51.1218 12.722 50.5571 12.5167 50.1185 12.106C49.6891 11.6953 49.4745 11.112 49.4745 10.356ZM58.9805 8.144L53.5905 18H51.2805L56.6705 8.144H58.9805ZM51.7985 9.39C51.3505 9.39 51.1265 9.712 51.1265 10.356C51.1265 10.9907 51.3505 11.308 51.7985 11.308C52.0131 11.308 52.1811 11.2287 52.3025 11.07C52.4238 10.9113 52.4845 10.6733 52.4845 10.356C52.4845 9.712 52.2558 9.39 51.7985 9.39ZM56.1385 15.788C56.1385 15.032 56.3531 14.4487 56.7825 14.038C57.2118 13.6273 57.7718 13.422 58.4625 13.422C59.1531 13.422 59.7131 13.6273 60.1425 14.038C60.5718 14.4487 60.7865 15.032 60.7865 15.788C60.7865 16.544 60.5718 17.1273 60.1425 17.538C59.7131 17.9487 59.1531 18.154 58.4625 18.154C57.7718 18.154 57.2118 17.9487 56.7825 17.538C56.3531 17.1273 56.1385 16.544 56.1385 15.788ZM58.4485 14.822C58.2338 14.822 58.0658 14.9013 57.9445 15.06C57.8325 15.2187 57.7765 15.4613 57.7765 15.788C57.7765 16.4227 58.0005 16.74 58.4485 16.74C58.6631 16.74 58.8311 16.6607 58.9525 16.502C59.0738 16.3433 59.1345 16.1053 59.1345 15.788C59.1345 15.4707 59.0738 15.2327 58.9525 15.074C58.8311 14.906 58.6631 14.822 58.4485 14.822Z" fill="#0B8A00"/>
</svg>
